<svg width="237" viewBox="0 0 237 54" fill="none" xmlns="http://www.w3.org/2000/svg">
<path d="M65.2183 22.1333H78.5376V25.1893H68.9085V31.8777H76.4042V34.9337H68.9085V44.8511H65.2183V22.1333Z" fill="white"/>
<path d="M92.3757 45.0819C85.9755 45.0819 80.7861 40.2962 80.7861 33.4924C80.7861 26.6886 85.9755 21.9028 92.3757 21.9028C98.8335 21.9028 103.965 26.6886 103.965 33.4924C103.965 40.2385 98.8335 45.0819 92.3757 45.0819ZM92.3757 41.853C96.8731 41.853 100.16 38.5664 100.16 33.4924C100.16 28.4184 96.8731 25.1894 92.3757 25.1894C87.8782 25.1894 84.5917 28.3607 84.5917 33.4924C84.5917 38.6241 87.8782 41.853 92.3757 41.853Z" fill="white"/>
<path d="M117.977 45.0819C111.577 45.0819 106.387 40.2962 106.387 33.4924C106.387 26.6886 111.577 21.9028 117.977 21.9028C124.435 21.9028 129.566 26.6886 129.566 33.4924C129.509 40.2385 124.435 45.0819 117.977 45.0819ZM117.977 41.853C122.474 41.853 125.761 38.5664 125.761 33.4924C125.761 28.4184 122.474 25.1894 117.977 25.1894C113.479 25.1894 110.193 28.303 110.193 33.4347C110.193 38.5664 113.479 41.853 117.977 41.853Z" fill="white"/>
<path d="M152.63 33.5499C152.63 40.5267 147.844 44.7935 140.579 44.7935H133.199V22.1333H140.579C147.844 22.1333 152.63 26.5731 152.63 33.5499ZM140.579 41.7952C145.941 41.7952 148.824 38.7392 148.824 33.5499C148.824 28.3605 145.941 25.1893 140.579 25.1893H136.889V41.7952H140.579Z" fill="white"/>
<path d="M170.447 25.0741L159.895 41.6224H170.447V44.8513H155.513V41.9683L166.007 25.4201H155.513V22.1912H170.447V25.0741Z" fill="white"/>
<path d="M184.862 45.0819C178.461 45.0819 173.272 40.2962 173.272 33.4924C173.272 26.6886 178.461 21.9028 184.862 21.9028C191.319 21.9028 196.451 26.6886 196.451 33.4924C196.451 40.2385 191.319 45.0819 184.862 45.0819ZM184.862 41.853C189.359 41.853 192.646 38.5664 192.646 33.4924C192.646 28.4184 189.359 25.1894 184.862 25.1894C180.364 25.1894 177.077 28.303 177.077 33.4347C177.077 38.5664 180.364 41.853 184.862 41.853Z" fill="white"/>
<path d="M218.707 22.1333V44.8511H215.017L203.831 27.8992V44.8511H200.141V22.1333H203.831L215.017 39.0275V22.1333H218.707Z" fill="white"/>
<path d="M236.121 25.1893H227.299V31.8201H235.141V34.876H227.299V41.7952H236.121V44.8511H223.609V22.1333H236.121V25.1893Z" fill="white"/>
<path d="M31.3157 32.1662C31.3157 32.1662 31.95 32.9157 31.2004 34.1842C30.9697 34.5302 30.6814 35.0491 30.2778 35.6834C30.6238 36.26 31.0274 36.9519 31.4887 37.5862C32.0653 36.5483 32.5266 35.6834 32.8148 35.1068C33.5068 33.8383 34.487 34.0113 34.487 34.0113C36.3321 34.1266 38.2925 33.0887 39.734 30.494C40.5412 29.1102 42.098 25.7083 43.5395 22.0181C43.6548 21.7875 43.5395 21.4992 43.3089 21.3262C43.0206 21.1532 42.6746 21.2685 42.5593 21.5568L38.6961 29.1679C38.4655 29.6868 37.8889 29.9174 37.4853 29.6868C37.2546 29.5715 37.197 29.2255 37.3699 28.9372L41.6944 21.0379C41.8097 20.8073 41.7521 20.4613 41.4638 20.2883L41.4061 20.2307C41.1178 20.0577 40.8295 20.173 40.6565 20.4613L36.2168 28.2453C36.0438 28.5336 35.6978 28.7066 35.4672 28.5336L35.4095 28.476L35.3519 28.4183C35.1212 28.303 35.0636 27.957 35.2365 27.6111L39.7916 19.8847C39.9646 19.5964 39.8493 19.3081 39.6187 19.1351L39.561 19.0775C39.3304 18.9045 38.9844 19.0198 38.8114 19.2504L34.2563 27.0921C34.0834 27.3804 33.7374 27.4957 33.5068 27.3804C33.1031 27.1498 33.0455 26.5732 33.3914 26.1119L38.0619 18.9622C38.2348 18.6739 38.1195 18.3279 37.8889 18.2126C37.6582 18.0973 37.3699 18.1549 37.197 18.3279C34.7176 21.4415 32.5842 24.4975 31.777 25.8813C30.2778 28.4183 30.2778 30.667 31.3157 32.1662Z" fill="#EA5455" class="ftr-l-clr"/>
<path d="M26.3568 43.871C26.1839 43.4673 25.9532 43.1214 25.7802 42.7178C24.1658 45.0818 23.0126 46.408 21.4558 48.0224C19.6107 49.8675 19.726 52.1739 21.3981 53.0965C23.0703 54.0767 25.146 53.0388 25.7802 50.5018C26.1839 48.8873 26.6451 47.5612 27.3371 45.889C27.0488 45.2548 26.7605 44.6205 26.3568 43.871Z" fill="#EA5455" class="ftr-l-clr"/>
<path d="M36.1008 47.9649C34.2557 46.1198 33.0448 44.6207 30.9114 41.3917C28.778 38.1628 26.9329 35.0492 26.1257 33.7807C25.3761 32.5122 26.241 31.3013 26.241 31.3013C27.5672 29.5716 27.7978 27.2075 26.3563 24.6705C24.3383 21.2109 19.7255 18.2127 16.9578 19.8271C14.2479 21.3839 14.4785 26.9192 16.4966 30.3788C17.9957 32.9158 20.1291 33.896 22.3202 33.6077C22.3202 33.6077 23.8193 33.4924 24.5689 34.7609C25.2608 36.0294 27.0482 39.2583 28.778 42.7179C30.5078 46.1775 31.1997 47.9649 31.834 50.5019C32.4682 53.0389 34.544 54.0768 36.2161 53.0966C37.8306 52.1164 37.9459 49.81 36.1008 47.9649Z" fill="#EA5455" class="ftr-l-clr"/>
<path d="M45.2684 10.7169C44.1729 10.7746 43.135 10.9475 42.0972 11.2935C40.771 5.1816 35.2933 0.568848 28.8931 0.568848C22.4353 0.568848 16.9576 5.18161 15.6891 11.3512C14.4783 10.9475 13.1521 10.7169 11.826 10.7169C5.3681 10.7169 0.121094 15.9639 0.121094 22.4218C0.121094 28.822 5.25278 34.0113 11.5953 34.1266L13.2674 47.7342H17.073C17.4766 47.7342 17.8802 47.5613 18.1108 47.2153C18.1108 47.2153 18.1108 47.2153 18.1108 47.1576C18.7451 46.2928 18.1685 45.1396 17.073 45.1396H15.5162L13.9017 31.4166L12.6332 31.532C12.3449 31.532 12.1143 31.5896 11.826 31.5896C6.80959 31.5896 2.71577 27.4958 2.71577 22.4794C2.71577 17.4631 6.80959 13.3692 11.826 13.3692C13.3251 13.3692 14.8242 13.7152 16.0928 14.4648L17.8802 15.3873L17.9955 13.3692C18.3991 7.66096 23.1272 3.22118 28.8355 3.22118C34.4861 3.22118 39.2718 7.6033 39.6755 13.2539L39.8484 15.1567L41.5206 14.3494C41.9242 14.1188 42.3854 13.9458 42.8467 13.8305C48.4397 12.1007 53.975 15.9062 54.6669 21.2686C55.4165 27.0922 50.6307 32.1085 44.8071 31.5896L43.5386 31.4743L41.8665 45.2549H40.425C39.3872 45.2549 38.7529 46.4657 39.3872 47.273C39.3872 47.273 39.3872 47.273 39.3872 47.3306C39.6178 47.6766 40.0214 47.8496 40.425 47.8496H44.2305L45.9027 34.2419C52.8795 34.1266 58.3571 27.8417 57.2616 20.6343C56.339 14.7531 51.092 10.5439 45.2684 10.7169Z" fill="#EA5455" class="ftr-l-clr"/>
</svg>
