<svg width="237" height="54" viewBox="0 0 237 54" fill="none" xmlns="http://www.w3.org/2000/svg">
<path d="M65.2188 22.085H78.5381V25.1409H68.9089V31.8294H76.4047V34.8854H68.9089V44.8028H65.2188V22.085Z" fill="#1F2228"/>
<path d="M92.3767 45.0336C85.9765 45.0336 80.7871 40.2479 80.7871 33.444C80.7871 26.6402 85.9765 21.8545 92.3767 21.8545C98.8345 21.8545 103.966 26.6402 103.966 33.444C103.966 40.1902 98.8345 45.0336 92.3767 45.0336ZM92.3767 41.8047C96.8741 41.8047 100.161 38.5181 100.161 33.444C100.161 28.37 96.8741 25.1411 92.3767 25.1411C87.8792 25.1411 84.5926 28.3124 84.5926 33.444C84.5926 38.5757 87.8792 41.8047 92.3767 41.8047Z" fill="#1F2228"/>
<path d="M117.976 45.0336C111.576 45.0336 106.387 40.2479 106.387 33.444C106.387 26.6402 111.576 21.8545 117.976 21.8545C124.434 21.8545 129.566 26.6402 129.566 33.444C129.508 40.1902 124.434 45.0336 117.976 45.0336ZM117.976 41.8047C122.474 41.8047 125.76 38.5181 125.76 33.444C125.76 28.37 122.474 25.1411 117.976 25.1411C113.479 25.1411 110.192 28.2547 110.192 33.3864C110.192 38.5181 113.479 41.8047 117.976 41.8047Z" fill="#1F2228"/>
<path d="M152.63 33.5015C152.63 40.4783 147.845 44.7451 140.58 44.7451H133.199V22.085H140.58C147.845 22.085 152.63 26.5247 152.63 33.5015ZM140.58 41.7468C145.942 41.7468 148.825 38.6909 148.825 33.5015C148.825 28.3122 145.942 25.1409 140.58 25.1409H136.889V41.7468H140.58Z" fill="#1F2228"/>
<path d="M170.447 25.0255L159.896 41.5738H170.447V44.8027H155.514V41.9198L166.008 25.3715H155.514V22.1426H170.447V25.0255Z" fill="#1F2228"/>
<path d="M184.861 45.0336C178.461 45.0336 173.271 40.2479 173.271 33.444C173.271 26.6402 178.461 21.8545 184.861 21.8545C191.319 21.8545 196.451 26.6402 196.451 33.444C196.451 40.1902 191.319 45.0336 184.861 45.0336ZM184.861 41.8047C189.358 41.8047 192.645 38.5181 192.645 33.444C192.645 28.37 189.358 25.1411 184.861 25.1411C180.364 25.1411 177.077 28.2547 177.077 33.3864C177.077 38.5181 180.364 41.8047 184.861 41.8047Z" fill="#1F2228"/>
<path d="M218.709 22.085V44.8028H215.019L203.833 27.8509V44.8028H200.143V22.085H203.833L215.019 38.9792V22.085H218.709Z" fill="#1F2228"/>
<path d="M236.121 25.1409H227.3V31.7718H235.141V34.8277H227.3V41.7468H236.121V44.8028H223.609V22.085H236.121V25.1409Z" fill="#1F2228"/>
<path d="M31.3152 32.1181C31.3152 32.1181 31.9495 32.8676 31.1999 34.1361C30.9693 34.4821 30.681 35.001 30.2773 35.6353C30.6233 36.2119 31.0269 36.9038 31.4882 37.5381C32.0648 36.5002 32.5261 35.6353 32.8144 35.0587C33.5063 33.7902 34.4865 33.9632 34.4865 33.9632C36.3316 34.0785 38.292 33.0406 39.7335 30.4459C40.5407 29.0621 42.0975 25.6602 43.539 21.97C43.6543 21.7394 43.539 21.4511 43.3084 21.2781C43.0201 21.1051 42.6741 21.2204 42.5588 21.5087L38.6956 29.1198C38.465 29.6387 37.8884 29.8693 37.4848 29.6387C37.2541 29.5234 37.1965 29.1774 37.3695 28.8891L41.6939 20.9898C41.8092 20.7592 41.7516 20.4132 41.4633 20.2402L41.4056 20.1826C41.1173 20.0096 40.829 20.1249 40.656 20.4132L36.2163 28.1972C36.0433 28.4855 35.6973 28.6585 35.4667 28.4855L35.409 28.4279L35.3514 28.3702C35.1207 28.2549 35.0631 27.9089 35.2361 27.563L39.7911 19.8366C39.9641 19.5483 39.8488 19.26 39.6182 19.087L39.5605 19.0294C39.3299 18.8564 38.9839 18.9717 38.8109 19.2024L34.2558 27.044C34.0829 27.3323 33.7369 27.4477 33.5063 27.3323C33.1027 27.1017 33.045 26.5251 33.391 26.0638L38.0614 18.9141C38.2343 18.6258 38.119 18.2798 37.8884 18.1645C37.6577 18.0492 37.3695 18.1068 37.1965 18.2798C34.7171 21.3934 32.5837 24.4494 31.7765 25.8332C30.2773 28.3702 30.2773 30.6189 31.3152 32.1181Z" fill="#EC9D9D"/>
<path d="M26.3563 43.8231C26.1834 43.4195 25.9527 43.0735 25.7798 42.6699C24.1653 45.034 23.0121 46.3601 21.4553 47.9746C19.6102 49.8197 19.7255 52.1261 21.3976 53.0486C23.0698 54.0288 25.1455 52.991 25.7798 50.4539C26.1834 48.8395 26.6446 47.5133 27.3366 45.8412C27.0483 45.2069 26.76 44.5727 26.3563 43.8231Z" fill="#EC9D9D"/>
<path d="M36.1008 47.9171C34.2557 46.072 33.0448 44.5728 30.9114 41.3439C28.778 38.115 26.9329 35.0014 26.1257 33.7328C25.3761 32.4643 26.241 31.2535 26.241 31.2535C27.5672 29.5237 27.7978 27.1597 26.3563 24.6226C24.3383 21.1631 19.7255 18.1648 16.9578 19.7793C14.2479 21.3361 14.4785 26.8714 16.4966 30.3309C17.9957 32.868 20.1291 33.8482 22.3202 33.5599C22.3202 33.5599 23.8193 33.4445 24.5689 34.713C25.2608 35.9816 27.0482 39.2105 28.778 42.67C30.5078 46.1296 31.1997 47.917 31.834 50.4541C32.4682 52.9911 34.544 54.0289 36.2161 53.0487C37.8306 52.0685 37.9459 49.7622 36.1008 47.9171Z" fill="#EC9D9D"/>
<path d="M45.2684 10.6686C44.1729 10.7262 43.135 10.8992 42.0972 11.2452C40.771 5.13326 35.2933 0.520508 28.8931 0.520508C22.4353 0.520508 16.9576 5.13327 15.6891 11.3028C14.4783 10.8992 13.1521 10.6686 11.826 10.6686C5.3681 10.6686 0.121094 15.9156 0.121094 22.3734C0.121094 28.7736 5.25278 33.963 11.5953 34.0783L13.2674 47.6859H17.073C17.4766 47.6859 17.8802 47.5129 18.1108 47.167C18.1108 47.167 18.1108 47.167 18.1108 47.1093C18.7451 46.2444 18.1685 45.0912 17.073 45.0912H15.5162L13.9017 31.3683L12.6332 31.4836C12.3449 31.4836 12.1143 31.5413 11.826 31.5413C6.80959 31.5413 2.71577 27.4475 2.71577 22.4311C2.71577 17.4147 6.80959 13.3209 11.826 13.3209C13.3251 13.3209 14.8242 13.6669 16.0928 14.4164L17.8802 15.339L17.9955 13.3209C18.3991 7.61262 23.1272 3.17284 28.8355 3.17284C34.4861 3.17284 39.2718 7.55496 39.6755 13.2056L39.8484 15.1083L41.5206 14.3011C41.9242 14.0705 42.3854 13.8975 42.8467 13.7822C48.4397 12.0524 53.975 15.8579 54.6669 21.2202C55.4165 27.0438 50.6307 32.0602 44.8071 31.5413L43.5386 31.426L41.8665 45.2066H40.425C39.3872 45.2066 38.7529 46.4174 39.3872 47.2246C39.3872 47.2246 39.3872 47.2246 39.3872 47.2823C39.6178 47.6282 40.0214 47.8012 40.425 47.8012H44.2305L45.9027 34.1936C52.8795 34.0783 58.3571 27.7934 57.2616 20.586C56.339 14.7047 51.092 10.4956 45.2684 10.6686Z" fill="#EC9D9D"/>
</svg>
