<svg width="236" viewBox="0 0 236 54" fill="none" xmlns="http://www.w3.org/2000/svg">
<path d="M65.0977 22.1182H78.417V25.1741H68.7879V31.8626H76.2836V34.9186H68.7879V44.836H65.0977V22.1182Z" fill="#1F2228" class="hdr-l-white"/>
<path d="M92.2556 45.0668C85.8554 45.0668 80.666 40.2811 80.666 33.4772C80.666 26.6734 85.8554 21.8877 92.2556 21.8877C98.7134 21.8877 103.845 26.6734 103.845 33.4772C103.845 40.2234 98.7134 45.0668 92.2556 45.0668ZM92.2556 41.8379C96.753 41.8379 100.04 38.5513 100.04 33.4772C100.04 28.4032 96.753 25.1743 92.2556 25.1743C87.7581 25.1743 84.4715 28.3456 84.4715 33.4772C84.4715 38.6089 87.7581 41.8379 92.2556 41.8379Z" fill="#1F2228" class="hdr-l-white"/>
<path d="M117.855 45.0668C111.455 45.0668 106.266 40.2811 106.266 33.4772C106.266 26.6734 111.455 21.8877 117.855 21.8877C124.313 21.8877 129.445 26.6734 129.445 33.4772C129.387 40.2234 124.313 45.0668 117.855 45.0668ZM117.855 41.8379C122.353 41.8379 125.639 38.5513 125.639 33.4772C125.639 28.4032 122.353 25.1743 117.855 25.1743C113.358 25.1743 110.071 28.2879 110.071 33.4196C110.071 38.5513 113.358 41.8379 117.855 41.8379Z" fill="#1F2228" class="hdr-l-white"/>
<path d="M152.509 33.5347C152.509 40.5115 147.724 44.7783 140.459 44.7783H133.078V22.1182H140.459C147.724 22.1182 152.509 26.5579 152.509 33.5347ZM140.459 41.78C145.821 41.78 148.704 38.7241 148.704 33.5347C148.704 28.3454 145.821 25.1741 140.459 25.1741H136.768V41.78H140.459Z" fill="#1F2228" class="hdr-l-white"/>
<path d="M170.326 25.0588L159.775 41.607H170.326V44.8359H155.393V41.953L165.887 25.4047H155.393V22.1758H170.326V25.0588Z" fill="#1F2228" class="hdr-l-white"/>
<path d="M184.74 45.0668C178.34 45.0668 173.15 40.2811 173.15 33.4772C173.15 26.6734 178.34 21.8877 184.74 21.8877C191.198 21.8877 196.329 26.6734 196.329 33.4772C196.329 40.2234 191.198 45.0668 184.74 45.0668ZM184.74 41.8379C189.237 41.8379 192.524 38.5513 192.524 33.4772C192.524 28.4032 189.237 25.1743 184.74 25.1743C180.243 25.1743 176.956 28.2879 176.956 33.4196C176.956 38.5513 180.243 41.8379 184.74 41.8379Z" fill="#1F2228" class="hdr-l-white"/>
<path d="M218.588 22.1182V44.836H214.898L203.712 27.8841V44.836H200.021V22.1182H203.712L214.898 39.0124V22.1182H218.588Z" fill="#1F2228" class="hdr-l-white"/>
<path d="M236 25.1741H227.178V31.805H235.02V34.8609H227.178V41.78H236V44.836H223.488V22.1182H236V25.1741Z" fill="#1F2228" class="hdr-l-white"/>
<path d="M31.1941 32.1513C31.1941 32.1513 31.8284 32.9008 31.0788 34.1693C30.8482 34.5153 30.5599 35.0342 30.1562 35.6685C30.5022 36.2451 30.9058 36.937 31.3671 37.5713C31.9437 36.5334 32.405 35.6685 32.6933 35.0919C33.3852 33.8234 34.3654 33.9964 34.3654 33.9964C36.2105 34.1117 38.1709 33.0738 39.6124 30.4791C40.4196 29.0953 41.9764 25.6934 43.4179 22.0032C43.5332 21.7726 43.4179 21.4843 43.1873 21.3113C42.899 21.1383 42.553 21.2536 42.4377 21.5419L38.5745 29.153C38.3439 29.6719 37.7673 29.9026 37.3637 29.6719C37.133 29.5566 37.0754 29.2106 37.2484 28.9223L41.5728 21.023C41.6881 20.7924 41.6305 20.4464 41.3422 20.2734L41.2845 20.2158C40.9962 20.0428 40.7079 20.1581 40.5349 20.4464L36.0952 28.2304C35.9222 28.5187 35.5762 28.6917 35.3456 28.5187L35.2879 28.4611L35.2303 28.4034C34.9996 28.2881 34.942 27.9421 35.115 27.5962L39.6701 19.8698C39.843 19.5815 39.7277 19.2932 39.4971 19.1202L39.4394 19.0626C39.2088 18.8896 38.8628 19.0049 38.6898 19.2356L34.1348 27.0772C33.9618 27.3655 33.6158 27.4809 33.3852 27.3655C32.9816 27.1349 32.9239 26.5583 33.2699 26.097L37.9403 18.9473C38.1133 18.659 37.9979 18.313 37.7673 18.1977C37.5367 18.0824 37.2484 18.14 37.0754 18.313C34.596 21.4266 32.4626 24.4826 31.6554 25.8664C30.1562 28.4034 30.1562 30.6521 31.1941 32.1513Z" fill="#EA5455" class="hdr-l-theme"/>
<path d="M26.2353 43.8563C26.0623 43.4527 25.8316 43.1067 25.6587 42.7031C24.0442 45.0672 22.891 46.3933 21.3342 48.0078C19.4891 49.8529 19.6044 52.1593 21.2765 53.0818C22.9487 54.062 25.0244 53.0242 25.6587 50.4871C26.0623 48.8727 26.5236 47.5465 27.2155 45.8744C26.9272 45.2401 26.6389 44.6059 26.2353 43.8563Z" fill="#EA5455" class="hdr-l-theme"/>
<path d="M35.9797 47.9503C34.1346 46.1052 32.9237 44.606 30.7903 41.3771C28.6569 38.1482 26.8118 35.0346 26.0046 33.7661C25.255 32.4975 26.1199 31.2867 26.1199 31.2867C27.4461 29.5569 27.6767 27.1929 26.2352 24.6559C24.2172 21.1963 19.6044 18.198 16.8368 19.8125C14.1268 21.3693 14.3574 26.9046 16.3755 30.3641C17.8746 32.9012 20.008 33.8814 22.1991 33.5931C22.1991 33.5931 23.6982 33.4777 24.4478 34.7463C25.1397 36.0148 26.9272 39.2437 28.6569 42.7032C30.3867 46.1628 31.0786 47.9503 31.7129 50.4873C32.3471 53.0243 34.4229 54.0621 36.095 53.0819C37.7095 52.1017 37.8248 49.7954 35.9797 47.9503Z" fill="#EA5455" class="hdr-l-theme"/>
<path d="M45.1473 10.7018C44.0518 10.7594 43.0139 10.9324 41.9761 11.2784C40.6499 5.16647 35.1722 0.553711 28.7721 0.553711C22.3142 0.553711 16.8365 5.16647 15.568 11.336C14.3572 10.9324 13.031 10.7018 11.7049 10.7018C5.24701 10.7018 0 15.9488 0 22.4066C0 28.8068 5.13169 33.9962 11.4742 34.1115L13.1463 47.7191H16.9519C17.3555 47.7191 17.7591 47.5462 17.9897 47.2002C17.9897 47.2002 17.9897 47.2002 17.9897 47.1425C18.624 46.2776 18.0474 45.1244 16.9519 45.1244H15.3951L13.7806 31.4015L12.5121 31.5168C12.2238 31.5168 11.9932 31.5745 11.7049 31.5745C6.68849 31.5745 2.59467 27.4807 2.59467 22.4643C2.59467 17.4479 6.68849 13.3541 11.7049 13.3541C13.204 13.3541 14.7032 13.7001 15.9717 14.4496L17.7591 15.3722L17.8744 13.3541C18.278 7.64583 23.0061 3.20605 28.7144 3.20605C34.365 3.20605 39.1507 7.58816 39.5544 13.2388L39.7273 15.1415L41.3995 14.3343C41.8031 14.1037 42.2644 13.9307 42.7256 13.8154C48.3186 12.0856 53.8539 15.8911 54.5458 21.2534C55.2954 27.077 50.5097 32.0934 44.686 31.5745L43.4175 31.4592L41.7454 45.2398H40.3039C39.2661 45.2398 38.6318 46.4506 39.2661 47.2578C39.2661 47.2578 39.2661 47.2578 39.2661 47.3155C39.4967 47.6614 39.9003 47.8344 40.3039 47.8344H44.1095L45.7816 34.2268C52.7584 34.1115 58.236 27.8266 57.1405 20.6192C56.2179 14.7379 50.9709 10.5288 45.1473 10.7018Z" fill="#EA5455" class="hdr-l-theme"/>
</svg>
