<svg width="149" height="137" viewBox="0 0 149 137" fill="none" xmlns="http://www.w3.org/2000/svg">
<path fill-rule="evenodd" clip-rule="evenodd" d="M148.945 103.151C148.945 106.648 149.165 123.694 148.725 130.687C148.504 134.403 146.742 136.369 146.301 136.588C145.199 137.025 143.437 137.462 141.454 135.932C139.03 134.184 134.403 127.846 133.742 127.191C129.996 123.038 126.251 118.886 122.285 114.952C116.336 108.833 110.387 102.933 104.217 97.2506C103.556 96.8135 103.556 95.9394 103.997 95.2837C104.438 94.6281 105.319 94.6281 105.98 95.0652C110.827 98.1248 115.675 101.403 120.081 104.9C126.912 110.144 133.081 116.045 139.03 122.383C139.25 122.601 141.013 123.694 142.335 124.568C137.928 116.045 132.861 107.959 127.352 99.6545C115.234 81.0786 100.912 63.3768 83.9468 48.2975C71.8285 37.589 58.8288 27.9732 44.9479 20.1057C32.1686 12.8939 18.7283 7.43039 5.06765 2.84103C3.52532 2.40395 1.98299 1.74834 0.440665 1.09271C0.220333 1.09271 0 0.874161 0 0.437073C0 0.218536 0.220333 0 0.660998 0C2.20333 0.218552 3.96599 0.218552 5.50832 0.655624C20.0503 3.27812 33.9312 8.96017 47.1512 15.9535C61.9135 23.1653 75.5741 32.7811 87.9128 43.7081C105.319 59.006 120.742 76.9263 131.759 96.8135C136.166 104.681 139.471 112.986 142.555 121.29C142.996 114.078 142.776 105.774 142.996 103.151L143.437 92.6612C143.657 88.7275 144.538 85.4494 146.742 86.3236C149.606 86.3236 148.725 91.5685 148.725 92.8798L148.945 103.151Z" fill="#EA5455"/>
</svg>
