<svg width="64" height="64" viewBox="0 0 64 64" fill="none" xmlns="http://www.w3.org/2000/svg">
<path d="M62.122 63.857C63.0803 63.857 63.8572 63.0801 63.8572 62.1217C63.8572 61.1634 63.0803 60.3865 62.122 60.3865C61.1636 60.3865 60.3867 61.1634 60.3867 62.1217C60.3867 63.0801 61.1636 63.857 62.122 63.857Z" fill="#C9AB81"/>
<path d="M52.0575 63.857C53.0159 63.857 53.7928 63.0801 53.7928 62.1217C53.7928 61.1634 53.0159 60.3865 52.0575 60.3865C51.0992 60.3865 50.3223 61.1634 50.3223 62.1217C50.3223 63.0801 51.0992 63.857 52.0575 63.857Z" fill="#C9AB81"/>
<path d="M41.994 63.857C42.9524 63.857 43.7293 63.0801 43.7293 62.1217C43.7293 61.1634 42.9524 60.3865 41.994 60.3865C41.0357 60.3865 40.2588 61.1634 40.2588 62.1217C40.2588 63.0801 41.0357 63.857 41.994 63.857Z" fill="#C9AB81"/>
<path d="M31.9296 63.857C32.8879 63.857 33.6648 63.0801 33.6648 62.1217C33.6648 61.1634 32.8879 60.3865 31.9296 60.3865C30.9712 60.3865 30.1943 61.1634 30.1943 62.1217C30.1943 63.0801 30.9712 63.857 31.9296 63.857Z" fill="#C9AB81"/>
<path d="M21.8632 63.857C22.8215 63.857 23.5984 63.0801 23.5984 62.1217C23.5984 61.1634 22.8215 60.3865 21.8632 60.3865C20.9048 60.3865 20.1279 61.1634 20.1279 62.1217C20.1279 63.0801 20.9048 63.857 21.8632 63.857Z" fill="#C9AB81"/>
<path d="M11.7997 63.857C12.758 63.857 13.5349 63.0801 13.5349 62.1217C13.5349 61.1634 12.758 60.3865 11.7997 60.3865C10.8413 60.3865 10.0645 61.1634 10.0645 62.1217C10.0645 63.0801 10.8413 63.857 11.7997 63.857Z" fill="#C9AB81"/>
<path d="M1.73524 63.857C2.69359 63.857 3.47049 63.0801 3.47049 62.1217C3.47049 61.1634 2.69359 60.3865 1.73524 60.3865C0.776895 60.3865 0 61.1634 0 62.1217C0 63.0801 0.776895 63.857 1.73524 63.857Z" fill="#C9AB81"/>
<path d="M62.122 53.7926C63.0803 53.7926 63.8572 53.0157 63.8572 52.0573C63.8572 51.099 63.0803 50.3221 62.122 50.3221C61.1636 50.3221 60.3867 51.099 60.3867 52.0573C60.3867 53.0157 61.1636 53.7926 62.122 53.7926Z" fill="#C9AB81"/>
<path d="M52.0575 53.7926C53.0159 53.7926 53.7928 53.0157 53.7928 52.0573C53.7928 51.099 53.0159 50.3221 52.0575 50.3221C51.0992 50.3221 50.3223 51.099 50.3223 52.0573C50.3223 53.0157 51.0992 53.7926 52.0575 53.7926Z" fill="#C9AB81"/>
<path d="M41.994 53.7926C42.9524 53.7926 43.7293 53.0157 43.7293 52.0573C43.7293 51.099 42.9524 50.3221 41.994 50.3221C41.0357 50.3221 40.2588 51.099 40.2588 52.0573C40.2588 53.0157 41.0357 53.7926 41.994 53.7926Z" fill="#C9AB81"/>
<path d="M31.9296 53.7926C32.8879 53.7926 33.6648 53.0157 33.6648 52.0573C33.6648 51.099 32.8879 50.3221 31.9296 50.3221C30.9712 50.3221 30.1943 51.099 30.1943 52.0573C30.1943 53.0157 30.9712 53.7926 31.9296 53.7926Z" fill="#C9AB81"/>
<path d="M21.8632 53.7926C22.8215 53.7926 23.5984 53.0157 23.5984 52.0573C23.5984 51.099 22.8215 50.3221 21.8632 50.3221C20.9048 50.3221 20.1279 51.099 20.1279 52.0573C20.1279 53.0157 20.9048 53.7926 21.8632 53.7926Z" fill="#C9AB81"/>
<path d="M11.7997 53.7926C12.758 53.7926 13.5349 53.0157 13.5349 52.0573C13.5349 51.099 12.758 50.3221 11.7997 50.3221C10.8413 50.3221 10.0645 51.099 10.0645 52.0573C10.0645 53.0157 10.8413 53.7926 11.7997 53.7926Z" fill="#C9AB81"/>
<path d="M1.73524 53.7926C2.69359 53.7926 3.47049 53.0157 3.47049 52.0573C3.47049 51.099 2.69359 50.3221 1.73524 50.3221C0.776895 50.3221 0 51.099 0 52.0573C0 53.0157 0.776895 53.7926 1.73524 53.7926Z" fill="#C9AB81"/>
<path d="M62.122 43.7281C63.0803 43.7281 63.8572 42.9512 63.8572 41.9929C63.8572 41.0345 63.0803 40.2576 62.122 40.2576C61.1636 40.2576 60.3867 41.0345 60.3867 41.9929C60.3867 42.9512 61.1636 43.7281 62.122 43.7281Z" fill="#C9AB81"/>
<path d="M52.0575 43.7281C53.0159 43.7281 53.7928 42.9512 53.7928 41.9929C53.7928 41.0345 53.0159 40.2576 52.0575 40.2576C51.0992 40.2576 50.3223 41.0345 50.3223 41.9929C50.3223 42.9512 51.0992 43.7281 52.0575 43.7281Z" fill="#C9AB81"/>
<path d="M41.994 43.7281C42.9524 43.7281 43.7293 42.9512 43.7293 41.9929C43.7293 41.0345 42.9524 40.2576 41.994 40.2576C41.0357 40.2576 40.2588 41.0345 40.2588 41.9929C40.2588 42.9512 41.0357 43.7281 41.994 43.7281Z" fill="#C9AB81"/>
<path d="M31.9296 43.7281C32.8879 43.7281 33.6648 42.9512 33.6648 41.9929C33.6648 41.0345 32.8879 40.2576 31.9296 40.2576C30.9712 40.2576 30.1943 41.0345 30.1943 41.9929C30.1943 42.9512 30.9712 43.7281 31.9296 43.7281Z" fill="#C9AB81"/>
<path d="M21.8632 43.7281C22.8215 43.7281 23.5984 42.9512 23.5984 41.9929C23.5984 41.0345 22.8215 40.2576 21.8632 40.2576C20.9048 40.2576 20.1279 41.0345 20.1279 41.9929C20.1279 42.9512 20.9048 43.7281 21.8632 43.7281Z" fill="#C9AB81"/>
<path d="M11.7997 43.7281C12.758 43.7281 13.5349 42.9512 13.5349 41.9929C13.5349 41.0345 12.758 40.2576 11.7997 40.2576C10.8413 40.2576 10.0645 41.0345 10.0645 41.9929C10.0645 42.9512 10.8413 43.7281 11.7997 43.7281Z" fill="#C9AB81"/>
<path d="M1.73524 43.7281C2.69359 43.7281 3.47049 42.9512 3.47049 41.9929C3.47049 41.0345 2.69359 40.2576 1.73524 40.2576C0.776895 40.2576 0 41.0345 0 41.9929C0 42.9512 0.776895 43.7281 1.73524 43.7281Z" fill="#C9AB81"/>
<path d="M62.122 33.6638C63.0803 33.6638 63.8572 32.8869 63.8572 31.9285C63.8572 30.9702 63.0803 30.1933 62.122 30.1933C61.1636 30.1933 60.3867 30.9702 60.3867 31.9285C60.3867 32.8869 61.1636 33.6638 62.122 33.6638Z" fill="#C9AB81"/>
<path d="M52.0575 33.6638C53.0159 33.6638 53.7928 32.8869 53.7928 31.9285C53.7928 30.9702 53.0159 30.1933 52.0575 30.1933C51.0992 30.1933 50.3223 30.9702 50.3223 31.9285C50.3223 32.8869 51.0992 33.6638 52.0575 33.6638Z" fill="#C9AB81"/>
<path d="M41.994 33.6638C42.9524 33.6638 43.7293 32.8869 43.7293 31.9285C43.7293 30.9702 42.9524 30.1933 41.994 30.1933C41.0357 30.1933 40.2588 30.9702 40.2588 31.9285C40.2588 32.8869 41.0357 33.6638 41.994 33.6638Z" fill="#C9AB81"/>
<path d="M31.9296 33.6638C32.8879 33.6638 33.6648 32.8869 33.6648 31.9285C33.6648 30.9702 32.8879 30.1933 31.9296 30.1933C30.9712 30.1933 30.1943 30.9702 30.1943 31.9285C30.1943 32.8869 30.9712 33.6638 31.9296 33.6638Z" fill="#C9AB81"/>
<path d="M21.8632 33.6638C22.8215 33.6638 23.5984 32.8869 23.5984 31.9285C23.5984 30.9702 22.8215 30.1933 21.8632 30.1933C20.9048 30.1933 20.1279 30.9702 20.1279 31.9285C20.1279 32.8869 20.9048 33.6638 21.8632 33.6638Z" fill="#C9AB81"/>
<path d="M11.7997 33.6638C12.758 33.6638 13.5349 32.8869 13.5349 31.9285C13.5349 30.9702 12.758 30.1933 11.7997 30.1933C10.8413 30.1933 10.0645 30.9702 10.0645 31.9285C10.0645 32.8869 10.8413 33.6638 11.7997 33.6638Z" fill="#C9AB81"/>
<path d="M1.73524 33.6638C2.69359 33.6638 3.47049 32.8869 3.47049 31.9285C3.47049 30.9702 2.69359 30.1933 1.73524 30.1933C0.776895 30.1933 0 30.9702 0 31.9285C0 32.8869 0.776895 33.6638 1.73524 33.6638Z" fill="#C9AB81"/>
<path d="M62.122 23.5993C63.0803 23.5993 63.8572 22.8224 63.8572 21.8641C63.8572 20.9057 63.0803 20.1288 62.122 20.1288C61.1636 20.1288 60.3867 20.9057 60.3867 21.8641C60.3867 22.8224 61.1636 23.5993 62.122 23.5993Z" fill="#C9AB81"/>
<path d="M52.0575 23.5993C53.0159 23.5993 53.7928 22.8224 53.7928 21.8641C53.7928 20.9057 53.0159 20.1288 52.0575 20.1288C51.0992 20.1288 50.3223 20.9057 50.3223 21.8641C50.3223 22.8224 51.0992 23.5993 52.0575 23.5993Z" fill="#C9AB81"/>
<path d="M41.994 23.5993C42.9524 23.5993 43.7293 22.8224 43.7293 21.8641C43.7293 20.9057 42.9524 20.1288 41.994 20.1288C41.0357 20.1288 40.2588 20.9057 40.2588 21.8641C40.2588 22.8224 41.0357 23.5993 41.994 23.5993Z" fill="#C9AB81"/>
<path d="M31.9296 23.5993C32.8879 23.5993 33.6648 22.8224 33.6648 21.8641C33.6648 20.9057 32.8879 20.1288 31.9296 20.1288C30.9712 20.1288 30.1943 20.9057 30.1943 21.8641C30.1943 22.8224 30.9712 23.5993 31.9296 23.5993Z" fill="#C9AB81"/>
<path d="M21.8632 23.5993C22.8215 23.5993 23.5984 22.8224 23.5984 21.8641C23.5984 20.9057 22.8215 20.1288 21.8632 20.1288C20.9048 20.1288 20.1279 20.9057 20.1279 21.8641C20.1279 22.8224 20.9048 23.5993 21.8632 23.5993Z" fill="#C9AB81"/>
<path d="M11.7997 23.5993C12.758 23.5993 13.5349 22.8224 13.5349 21.8641C13.5349 20.9057 12.758 20.1288 11.7997 20.1288C10.8413 20.1288 10.0645 20.9057 10.0645 21.8641C10.0645 22.8224 10.8413 23.5993 11.7997 23.5993Z" fill="#C9AB81"/>
<path d="M1.73524 23.5993C2.69359 23.5993 3.47049 22.8224 3.47049 21.8641C3.47049 20.9057 2.69359 20.1288 1.73524 20.1288C0.776895 20.1288 0 20.9057 0 21.8641C0 22.8224 0.776895 23.5993 1.73524 23.5993Z" fill="#C9AB81"/>
<path d="M62.122 13.5349C63.0803 13.5349 63.8572 12.758 63.8572 11.7996C63.8572 10.8413 63.0803 10.0644 62.122 10.0644C61.1636 10.0644 60.3867 10.8413 60.3867 11.7996C60.3867 12.758 61.1636 13.5349 62.122 13.5349Z" fill="#C9AB81"/>
<path d="M52.0575 13.5349C53.0159 13.5349 53.7928 12.758 53.7928 11.7996C53.7928 10.8413 53.0159 10.0644 52.0575 10.0644C51.0992 10.0644 50.3223 10.8413 50.3223 11.7996C50.3223 12.758 51.0992 13.5349 52.0575 13.5349Z" fill="#C9AB81"/>
<path d="M41.994 13.5349C42.9524 13.5349 43.7293 12.758 43.7293 11.7996C43.7293 10.8413 42.9524 10.0644 41.994 10.0644C41.0357 10.0644 40.2588 10.8413 40.2588 11.7996C40.2588 12.758 41.0357 13.5349 41.994 13.5349Z" fill="#C9AB81"/>
<path d="M31.9296 13.5349C32.8879 13.5349 33.6648 12.758 33.6648 11.7996C33.6648 10.8413 32.8879 10.0644 31.9296 10.0644C30.9712 10.0644 30.1943 10.8413 30.1943 11.7996C30.1943 12.758 30.9712 13.5349 31.9296 13.5349Z" fill="#C9AB81"/>
<path d="M21.8632 13.5349C22.8215 13.5349 23.5984 12.758 23.5984 11.7996C23.5984 10.8413 22.8215 10.0644 21.8632 10.0644C20.9048 10.0644 20.1279 10.8413 20.1279 11.7996C20.1279 12.758 20.9048 13.5349 21.8632 13.5349Z" fill="#C9AB81"/>
<path d="M11.7997 13.5349C12.758 13.5349 13.5349 12.758 13.5349 11.7996C13.5349 10.8413 12.758 10.0644 11.7997 10.0644C10.8413 10.0644 10.0645 10.8413 10.0645 11.7996C10.0645 12.758 10.8413 13.5349 11.7997 13.5349Z" fill="#C9AB81"/>
<path d="M1.73524 13.5349C2.69359 13.5349 3.47049 12.758 3.47049 11.7996C3.47049 10.8413 2.69359 10.0644 1.73524 10.0644C0.776895 10.0644 0 10.8413 0 11.7996C0 12.758 0.776895 13.5349 1.73524 13.5349Z" fill="#C9AB81"/>
<path d="M62.122 3.47049C63.0803 3.47049 63.8572 2.69359 63.8572 1.73524C63.8572 0.776895 63.0803 0 62.122 0C61.1636 0 60.3867 0.776895 60.3867 1.73524C60.3867 2.69359 61.1636 3.47049 62.122 3.47049Z" fill="#C9AB81"/>
<path d="M52.0575 3.47049C53.0159 3.47049 53.7928 2.69359 53.7928 1.73524C53.7928 0.776895 53.0159 0 52.0575 0C51.0992 0 50.3223 0.776895 50.3223 1.73524C50.3223 2.69359 51.0992 3.47049 52.0575 3.47049Z" fill="#C9AB81"/>
<path d="M41.994 3.47049C42.9524 3.47049 43.7293 2.69359 43.7293 1.73524C43.7293 0.776895 42.9524 0 41.994 0C41.0357 0 40.2588 0.776895 40.2588 1.73524C40.2588 2.69359 41.0357 3.47049 41.994 3.47049Z" fill="#C9AB81"/>
<path d="M31.9296 3.47049C32.8879 3.47049 33.6648 2.69359 33.6648 1.73524C33.6648 0.776895 32.8879 0 31.9296 0C30.9712 0 30.1943 0.776895 30.1943 1.73524C30.1943 2.69359 30.9712 3.47049 31.9296 3.47049Z" fill="#C9AB81"/>
<path d="M21.8632 3.47049C22.8215 3.47049 23.5984 2.69359 23.5984 1.73524C23.5984 0.776895 22.8215 0 21.8632 0C20.9048 0 20.1279 0.776895 20.1279 1.73524C20.1279 2.69359 20.9048 3.47049 21.8632 3.47049Z" fill="#C9AB81"/>
<path d="M11.7997 3.47049C12.758 3.47049 13.5349 2.69359 13.5349 1.73524C13.5349 0.776895 12.758 0 11.7997 0C10.8413 0 10.0645 0.776895 10.0645 1.73524C10.0645 2.69359 10.8413 3.47049 11.7997 3.47049Z" fill="#C9AB81"/>
<path d="M1.73524 3.47049C2.69359 3.47049 3.47049 2.69359 3.47049 1.73524C3.47049 0.776895 2.69359 0 1.73524 0C0.776895 0 0 0.776895 0 1.73524C0 2.69359 0.776895 3.47049 1.73524 3.47049Z" fill="#C9AB81"/>
</svg>
