<svg width="480" height="28" viewBox="0 0 480 28" fill="none" xmlns="http://www.w3.org/2000/svg">
<path d="M234.2 27.1258C234 27.1258 233.9 27.1258 233.7 27.1258C232.8 27.1258 224.9 27.0258 219.4 17.2258C217.6 14.0258 215.2 11.0258 213.1 9.42585L212.8 9.12585C210.1 6.92585 206.5 6.22585 203.2 7.32585C200 8.32585 197.7 10.8258 196.9 13.9258C196.8 14.1258 196.8 14.4258 196.7 14.7258C196.3 17.0258 196.8 19.3258 198.3 21.3258C200.4 24.1258 203.2 25.4258 206 24.7258C208.5 24.1258 210.5 22.1258 210.9 19.5258C211.2 18.2258 210.8 16.8258 210 15.7258C208.7 14.0258 207.1 13.2258 205.4 13.6258C203.9 13.9258 202.8 15.1258 202.5 16.6258C202.2 18.1258 203.2 19.7258 204.7 20.0258L204.3 22.2258C201.6 21.7258 199.8 19.0258 200.3 16.3258C200.8 13.9258 202.5 12.1258 204.9 11.5258C207.4 10.9258 209.9 12.0258 211.7 14.4258C212.9 16.0258 213.4 18.1258 213 20.0258C212.3 23.4258 209.7 26.2258 206.4 26.9258C202.8 27.7258 199.1 26.2258 196.4 22.7258C194.5 20.2258 193.8 17.2258 194.4 14.3258C194.5 14.0258 194.5 13.7258 194.6 13.4258C195.6 9.52585 198.5 6.52585 202.4 5.22585C206.4 3.92585 210.8 4.72585 214.1 7.42585L214.4 7.62585C216.7 9.42585 219.3 12.6258 221.3 16.1258C226.3 25.1258 233.6 24.9258 233.6 24.9258H233.7H233.8C235 25.0258 236.3 24.6258 237.2 23.8258C238.2 23.0258 238.8 21.8258 238.9 20.5258C239.1 18.5258 237.6 16.7258 235.6 16.6258C234.9 16.5258 234.2 16.8258 233.6 17.3258C232.8 18.1258 232.5 19.0258 232.8 19.9258C233.1 20.6258 233.7 21.1258 234.4 21.2258L234.2 23.4258C232.6 23.3258 231.2 22.2258 230.7 20.7258C230.1 19.0258 230.6 17.2258 232 15.8258C233 14.8258 234.4 14.3258 235.7 14.4258C238.8 14.7258 241.2 17.5258 241 20.7258C240.9 22.6258 240 24.3258 238.5 25.5258C237.4 26.5258 235.8 27.1258 234.2 27.1258Z" fill="#EA5455"/>
<path d="M245.901 27.1261C244.301 27.1261 242.701 26.5261 241.401 25.4261C240.001 24.2261 239.101 22.5261 238.901 20.6261C238.701 17.4261 241.001 14.6261 244.201 14.3261C245.501 14.2261 246.901 14.7261 247.901 15.7261C249.301 17.1261 249.801 18.9261 249.201 20.6261C248.701 22.1261 247.301 23.2261 245.701 23.3261L245.501 21.1261C246.201 21.0261 246.901 20.5261 247.101 19.8261C247.401 19.0261 247.101 18.0261 246.301 17.2261C245.801 16.7261 245.001 16.4261 244.301 16.5261C242.301 16.7261 240.901 18.4261 241.001 20.4261C241.101 21.7261 241.701 22.9261 242.701 23.7261C243.701 24.5261 244.901 24.9261 246.101 24.8261H246.201H246.301C246.601 24.8261 253.701 25.0261 258.601 16.0261C260.601 12.5261 263.201 9.32606 265.501 7.52606L265.801 7.32606C269.201 4.72606 273.601 3.92606 277.601 5.22606C281.501 6.52606 284.401 9.42606 285.401 13.4261C285.501 13.7261 285.501 14.0261 285.601 14.3261C286.201 17.2261 285.401 20.2261 283.601 22.7261C281.001 26.2261 277.201 27.8261 273.601 26.9261C270.201 26.1261 267.601 23.4261 267.001 20.0261C266.601 18.1261 267.101 16.1261 268.301 14.4261C270.101 12.0261 272.601 10.9261 275.101 11.5261C277.401 12.0261 279.201 13.9261 279.701 16.3261C280.201 19.0261 278.401 21.7261 275.701 22.2261L275.301 20.0261C276.801 19.7261 277.801 18.2261 277.501 16.6261C277.201 15.1261 276.101 13.9261 274.601 13.6261C273.001 13.2261 271.301 14.0261 270.001 15.7261C269.201 16.8261 268.801 18.2261 269.101 19.5261C269.601 22.1261 271.501 24.1261 274.001 24.7261C276.801 25.3261 279.601 24.1261 281.701 21.3261C283.201 19.3261 283.801 17.0261 283.301 14.7261C283.301 14.4261 283.201 14.2261 283.101 13.9261C282.301 10.7261 279.901 8.32606 276.801 7.32606C273.501 6.22606 269.901 6.92606 267.201 9.12606L266.901 9.32606C264.801 10.9261 262.301 13.9261 260.501 17.1261C255.101 26.9261 247.101 27.1261 246.201 27.0261C246.201 27.1261 246.001 27.1261 245.901 27.1261Z" fill="#EA5455"/>
<path d="M240.001 14.8262C238.201 14.8262 236.801 13.6262 236.501 11.8262C235.701 7.72617 238.901 2.52617 239.101 2.32617L240.001 0.826172L240.901 2.32617C241.001 2.52617 244.301 7.72617 243.501 11.8262C243.201 13.6262 241.801 14.8262 240.001 14.8262ZM238.701 11.4262C238.901 12.3262 239.501 12.6262 240.001 12.6262C240.501 12.6262 241.201 12.3262 241.301 11.4262C241.701 9.42617 240.701 6.92617 240.001 5.32617C239.201 6.92617 238.301 9.52617 238.701 11.4262Z" fill="#EA5455"/>
<path d="M469.899 17.6263C469.399 17.6263 468.999 17.6263 468.599 17.5263C466.899 17.2263 465.699 15.7263 465.699 14.0263C465.699 12.2263 466.899 10.8263 468.599 10.5263C472.599 9.7263 477.699 13.0263 477.999 13.1263L479.399 14.0263L477.999 14.9263C477.699 15.0263 473.599 17.6263 469.899 17.6263ZM468.999 12.6263C468.199 12.8263 467.899 13.4263 467.899 14.0263C467.899 14.6263 468.199 15.2263 468.999 15.4263C470.899 15.8263 473.299 14.9263 475.099 14.0263C473.299 13.1263 470.799 12.2263 468.999 12.6263Z" fill="#EA5455"/>
<path d="M461.499 15.1263C461.399 15.1263 461.299 15.1263 461.199 15.1263C460.499 15.1263 456.399 14.9263 453.699 9.92628C452.799 8.42628 451.699 7.02628 450.699 6.22628L450.499 6.12628C449.299 5.12628 447.699 4.82628 446.199 5.32628C444.799 5.82628 443.799 6.82628 443.399 8.22628C443.399 8.32628 443.299 8.42628 443.299 8.52628C443.099 9.52628 443.399 10.5263 443.999 11.3263C444.899 12.5263 446.099 13.1263 447.299 12.8263C448.299 12.6263 449.099 11.7263 449.299 10.7263C449.399 10.2263 449.299 9.72628 448.899 9.22628C448.399 8.52628 447.799 8.22628 447.199 8.42628C446.699 8.52628 446.299 8.92628 446.199 9.52628C446.099 10.0263 446.399 10.4263 446.899 10.5263L446.499 12.7263C444.899 12.4263 443.799 10.8263 444.099 9.12628C444.399 7.72628 445.399 6.62628 446.799 6.32628C448.299 6.02628 449.699 6.62628 450.799 8.02628C451.499 8.92628 451.799 10.1263 451.499 11.2263C451.099 13.1263 449.699 14.6263 447.799 15.1263C445.799 15.6263 443.699 14.7263 442.299 12.8263C441.299 11.5263 440.899 9.82628 441.199 8.22628C441.199 8.02628 441.299 7.92628 441.299 7.72628C441.899 5.62628 443.399 3.92628 445.499 3.32628C447.699 2.62628 450.099 3.02628 451.799 4.52628L451.899 4.62628C453.099 5.52628 454.399 7.22628 455.499 9.02628C457.099 11.8263 459.099 12.7263 460.199 13.0263C459.699 12.7263 459.399 12.3263 459.199 11.7263C458.799 10.7263 459.099 9.52628 459.999 8.72628C460.599 8.12628 461.499 7.82628 462.299 7.92628C464.199 8.12628 465.599 9.72628 465.399 11.6263C465.299 12.7263 464.799 13.7263 463.999 14.4263C463.299 14.8263 462.399 15.1263 461.499 15.1263ZM462.099 9.82628C461.899 9.82628 461.699 9.92628 461.599 10.0263C461.399 10.2263 461.299 10.5263 461.299 10.7263C461.299 10.8263 461.499 10.9263 461.599 11.0263L461.399 12.9263C461.799 12.9263 462.199 12.7263 462.499 12.5263C462.899 12.2263 463.099 11.7263 463.099 11.2263C463.299 10.5263 462.799 9.92628 462.099 9.82628Z" fill="#EA5455"/>
<path d="M447.599 25.2265C446.899 25.2265 446.199 25.1265 445.499 24.9265C443.399 24.2265 441.799 22.6265 441.299 20.5265C441.299 20.3265 441.199 20.2265 441.199 20.0265C440.899 18.4265 441.299 16.7265 442.299 15.4265C443.699 13.5265 445.799 12.6265 447.799 13.1265C449.699 13.5265 451.099 15.1265 451.499 17.0265C451.699 18.1265 451.399 19.3265 450.799 20.2265C449.799 21.6265 448.299 22.2265 446.799 21.9265C445.399 21.6265 444.399 20.5265 444.099 19.1265C443.799 17.4265 444.899 15.8265 446.499 15.5265L446.899 17.7265C446.399 17.8265 446.199 18.2265 446.199 18.7265C446.299 19.2265 446.699 19.6265 447.199 19.8265C447.799 19.9265 448.399 19.6265 448.899 19.0265C449.199 18.6265 449.399 18.0265 449.299 17.5265C449.099 16.4265 448.299 15.6265 447.299 15.4265C446.099 15.1265 444.999 15.7265 443.999 16.9265C443.399 17.8265 443.099 18.8265 443.299 19.7265C443.299 19.8265 443.299 19.9265 443.399 20.0265C443.799 21.4265 444.799 22.5265 446.199 22.9265C447.699 23.4265 449.299 23.1265 450.499 22.1265L450.599 22.0265C451.599 21.2265 452.799 19.8265 453.599 18.3265C456.399 13.3265 460.499 13.1265 461.199 13.1265C462.199 13.0265 463.199 13.4265 463.999 14.0265C464.799 14.7265 465.299 15.7265 465.399 16.8265C465.499 18.7265 464.099 20.4265 462.299 20.5265C461.499 20.6265 460.599 20.3265 459.999 19.7265C459.099 18.8265 458.799 17.7265 459.199 16.7265C459.399 16.2265 459.699 15.7265 460.199 15.4265C459.099 15.7265 457.099 16.5265 455.499 19.4265C454.499 21.2265 453.099 22.8265 451.899 23.8265L451.799 23.9265C450.699 24.7265 449.199 25.2265 447.599 25.2265ZM461.499 15.1265L461.699 17.0265C461.499 17.0265 461.399 17.2265 461.399 17.3265C461.299 17.5265 461.399 17.8265 461.699 18.0265C461.799 18.1265 462.099 18.2265 462.199 18.2265C462.899 18.1265 463.399 17.5265 463.299 16.8265C463.299 16.3265 462.999 15.8265 462.699 15.5265C462.299 15.2265 461.899 15.1265 461.499 15.1265Z" fill="#EA5455"/>
<path d="M446.4 12.9258H284.6V15.1258H446.4V12.9258Z" fill="#EA5455"/>
<path d="M9.99961 17.6263C6.29961 17.6263 2.19961 15.0263 1.99961 14.8263L0.599609 14.0263L1.99961 13.1263C2.19961 13.0263 7.29961 9.7263 11.3996 10.5263C13.0996 10.8263 14.2996 12.3263 14.2996 14.0263C14.2996 15.8263 13.0996 17.2263 11.3996 17.5263C10.8996 17.6263 10.4996 17.6263 9.99961 17.6263ZM4.89961 14.0263C6.59961 14.9263 9.09961 15.8263 10.9996 15.4263C11.7996 15.2263 12.0996 14.6263 12.0996 14.0263C12.0996 13.4263 11.7996 12.8263 10.9996 12.6263C9.09961 12.2263 6.59961 13.1263 4.89961 14.0263Z" fill="#EA5455"/>
<path d="M18.3996 15.126C17.4996 15.126 16.5996 14.826 15.7996 14.126C14.9996 13.426 14.4996 12.426 14.3996 11.326C14.2996 9.42605 15.6996 7.72605 17.4996 7.62605C18.2996 7.52605 19.1996 7.82605 19.7996 8.42605C20.6996 9.32605 20.9996 10.426 20.5996 11.426C20.3996 11.926 20.0996 12.426 19.5996 12.726C20.6996 12.426 22.6996 11.626 24.2996 8.72605C25.2996 6.92605 26.6996 5.32605 27.8996 4.32605L27.9996 4.22605C29.7996 2.82605 32.1996 2.32605 34.2996 3.02605C36.3996 3.72605 37.9996 5.32605 38.4996 7.42605C38.4996 7.62605 38.5996 7.72605 38.5996 7.92605C38.8996 9.52605 38.4996 11.226 37.4996 12.526C36.0996 14.426 33.9996 15.326 31.9996 14.826C30.0996 14.426 28.6996 12.826 28.2996 10.926C28.0996 9.82605 28.3996 8.62605 28.9996 7.72605C29.9996 6.32605 31.4996 5.72605 32.9996 6.02605C34.3996 6.32605 35.3996 7.42605 35.6996 8.82605C35.9996 10.526 34.8996 12.126 33.2996 12.426L32.8996 10.226C33.3996 10.126 33.5996 9.72605 33.5996 9.22605C33.4996 8.72605 33.0996 8.32605 32.5996 8.12605C31.9996 8.02605 31.3996 8.32605 30.8996 8.92605C30.5996 9.32605 30.3996 9.92605 30.4996 10.426C30.6996 11.526 31.4996 12.326 32.4996 12.526C33.6996 12.826 34.7996 12.226 35.7996 11.026C36.3996 10.126 36.6996 9.12605 36.4996 8.22605C36.4996 8.12605 36.4996 8.02605 36.3996 7.92605C35.9996 6.52605 34.9996 5.42605 33.5996 5.02605C32.0996 4.52605 30.4996 4.82605 29.2996 5.82605L29.1996 5.92605C28.1996 6.72605 26.9996 8.12605 26.1996 9.62605C23.3996 14.626 19.2996 14.826 18.5996 14.826C18.5996 15.126 18.4996 15.126 18.3996 15.126ZM17.7996 9.82605C17.7996 9.82605 17.6996 9.82605 17.7996 9.82605C17.0996 9.92605 16.5996 10.526 16.5996 11.226C16.5996 11.726 16.8996 12.226 17.1996 12.526C17.4996 12.826 17.8996 12.926 18.2996 12.926L18.0996 11.026C18.2996 11.026 18.3996 10.826 18.3996 10.726C18.4996 10.526 18.3996 10.326 18.0996 10.026C18.0996 9.92605 17.8996 9.82605 17.7996 9.82605Z" fill="#EA5455"/>
<path d="M32.2995 25.2263C30.7995 25.2263 29.2995 24.7263 28.0995 23.7263L27.9995 23.6263C26.7995 22.7263 25.4995 21.0263 24.3995 19.2263C22.7995 16.4263 20.7995 15.5263 19.6995 15.2263C20.1995 15.5263 20.4995 15.9263 20.6995 16.5263C21.0995 17.5263 20.7995 18.7263 19.8995 19.5263C19.2995 20.1263 18.3995 20.4263 17.5995 20.3263C15.6995 20.1263 14.2995 18.5263 14.4995 16.6263C14.5995 15.5263 15.0995 14.5263 15.8995 13.8263C16.6995 13.1263 17.6995 12.8263 18.6995 12.9263C19.3995 12.9263 23.4995 13.1263 26.1995 18.1263C27.0995 19.6263 28.1995 21.0263 29.1995 21.8263L29.3995 21.9263C30.5995 22.9263 32.1995 23.2263 33.6995 22.7263C35.0995 22.2263 36.0995 21.2263 36.4995 19.8263C36.4995 19.7263 36.5995 19.6263 36.5995 19.5263C36.7995 18.5263 36.4995 17.5263 35.8995 16.7263C34.9995 15.5263 33.7995 14.9263 32.5995 15.2263C31.5995 15.4263 30.7995 16.3263 30.5995 17.3263C30.4995 17.8263 30.5995 18.3263 30.9995 18.8263C31.4995 19.5263 32.0995 19.8263 32.6995 19.6263C33.1995 19.5263 33.5995 19.1263 33.6995 18.5263C33.7995 18.0263 33.4995 17.6263 32.9995 17.5263L33.3995 15.3263C34.9995 15.6263 36.0995 17.2263 35.7995 18.9263C35.4995 20.3263 34.4995 21.4263 33.0995 21.7263C31.5995 22.0263 30.1995 21.4263 29.0995 20.0263C28.3995 19.1263 28.0995 17.9263 28.3995 16.8263C28.7995 14.9263 30.1995 13.4263 32.0995 12.9263C34.0995 12.4263 36.1995 13.3263 37.5995 15.2263C38.5995 16.5263 38.9995 18.2263 38.6995 19.8263C38.6995 20.0263 38.5995 20.1263 38.5995 20.3263C37.9995 22.4263 36.4995 24.1263 34.3995 24.7263C33.6995 25.1263 32.9995 25.2263 32.2995 25.2263ZM18.3995 15.1263C17.9995 15.1263 17.5995 15.3263 17.2995 15.5263C16.8995 15.8263 16.6995 16.3263 16.6995 16.8263C16.5995 17.5263 17.0995 18.1263 17.7995 18.2263C17.9995 18.2263 18.1995 18.1263 18.2995 18.0263C18.4995 17.8263 18.5995 17.5263 18.5995 17.3263C18.5995 17.2263 18.3995 17.1263 18.2995 17.0263L18.3995 15.1263Z" fill="#EA5455"/>
<path d="M195.3 12.9258H33.5V15.1258H195.3V12.9258Z" fill="#EA5455"/>
</svg>
