<svg width="22" height="21" viewBox="0 0 22 21" fill="none" xmlns="http://www.w3.org/2000/svg">
<path d="M21.6923 4.56456C21.5674 4.39022 21.3664 4.28245 21.1481 4.27337L7.61409 3.70517C7.22577 3.68862 6.90127 3.98062 6.88467 4.35707C6.86817 4.73338 7.16748 5.05134 7.55394 5.06751L20.1717 5.59728L17.6908 13.1365H6.6504L4.6558 2.5586C4.61195 2.32676 4.44853 2.13335 4.22315 2.04723L0.956322 0.797218C0.596276 0.659924 0.189992 0.832172 0.0485907 1.18242C-0.0925663 1.53286 0.084234 1.92881 0.444084 2.06654L3.34881 3.17797L5.37862 13.9416C5.4398 14.2651 5.72934 14.5001 6.06727 14.5001H6.40398L5.63511 16.5802C5.57076 16.7545 5.59727 16.948 5.70679 17.0994C5.81616 17.2508 5.99403 17.3409 6.18392 17.3409H6.7232C6.38904 17.7031 6.18392 18.18 6.18392 18.7045C6.18392 19.8325 7.12622 20.75 8.28404 20.75C9.44186 20.75 10.3842 19.8325 10.3842 18.7045C10.3842 18.1801 10.179 17.7031 9.84492 17.3409H14.4237C14.0894 17.7031 13.8843 18.18 13.8843 18.7045C13.8843 19.8325 14.8264 20.75 15.9844 20.75C17.1426 20.75 18.0846 19.8325 18.0846 18.7045C18.0846 18.1801 17.8795 17.7031 17.5454 17.3409H18.2013C18.5235 17.3409 18.7846 17.0865 18.7846 16.7727C18.7846 16.4588 18.5235 16.2045 18.2013 16.2045H7.01396L7.64392 14.5H18.2012C18.5056 14.5 18.775 14.3084 18.8677 14.0263L21.7846 5.16248C21.8516 4.96018 21.8172 4.73899 21.6923 4.56456ZM8.28409 19.6138C7.76931 19.6138 7.35067 19.2061 7.35067 18.7048C7.35067 18.2034 7.76931 17.7956 8.28409 17.7956C8.79886 17.7956 9.21745 18.2034 9.21745 18.7048C9.21745 19.2061 8.79886 19.6138 8.28409 19.6138ZM15.9844 19.6138C15.4697 19.6138 15.0511 19.2061 15.0511 18.7048C15.0511 18.2034 15.4697 17.7956 15.9844 17.7956C16.4992 17.7956 16.9178 18.2034 16.9178 18.7048C16.9178 19.2061 16.4992 19.6138 15.9844 19.6138Z" fill="white"/>
</svg>
