<svg width="16" height="22" viewBox="0 0 16 22" fill="none" xmlns="http://www.w3.org/2000/svg">
<path fill-rule="evenodd" clip-rule="evenodd" d="M2 9.33333C1.63289 9.33333 1.33333 9.632 1.33333 10V19.3333C1.33333 19.7013 1.63289 20 2 20H14C14.3671 20 14.6667 19.7013 14.6667 19.3333V10C14.6667 9.632 14.3671 9.33333 14 9.33333H12.6667H3.33333H2ZM2.66667 8V5.33333C2.66667 2.392 5.05867 0 8 0C10.9413 0 13.3333 2.392 13.3333 5.33333V8H14C15.1022 8 16 8.89689 16 10V19.3333C16 20.4364 15.1022 21.3333 14 21.3333H2C0.897778 21.3333 0 20.4364 0 19.3333V10C0 8.89689 0.897778 8 2 8H2.66667ZM12 8V5.33333C12 3.128 10.2053 1.33333 8 1.33333C5.79467 1.33333 4 3.128 4 5.33333V8H12ZM7.33333 14.9815C6.68232 14.7173 6.22218 14.0781 6.22218 13.3333C6.22218 12.3529 7.01951 11.5555 7.99995 11.5555C8.9804 11.5555 9.77773 12.3529 9.77773 13.3333C9.77773 14.0781 9.31763 14.7172 8.66667 14.9814V17.1111C8.66667 17.4791 8.368 17.7778 8 17.7778C7.632 17.7778 7.33333 17.4791 7.33333 17.1111V14.9815ZM7.99995 12.8889C7.75551 12.8889 7.55551 13.088 7.55551 13.3333C7.55551 13.5787 7.75551 13.7778 7.99995 13.7778C8.2444 13.7778 8.4444 13.5787 8.4444 13.3333C8.4444 13.088 8.2444 12.8889 7.99995 12.8889Z" fill="white"/>
</svg>
