<svg width="78" height="78" viewBox="0 0 78 78" fill="none" xmlns="http://www.w3.org/2000/svg">
<path d="M73.6836 21.1495C70.9525 15.8525 66.9694 11.175 62.1658 7.62267C61.4608 7.10152 60.4671 7.25046 59.9457 7.95521C59.4243 8.65997 59.5735 9.65387 60.2782 10.1753C64.6927 13.4398 68.3525 17.7377 70.8622 22.6045C73.4918 27.7042 74.8252 33.2203 74.8252 39.0001C74.8252 58.7542 58.7539 74.8254 38.9999 74.8254C19.2458 74.8254 3.17457 58.7542 3.17457 38.9999C3.17457 19.2456 19.2458 3.17457 38.9999 3.17457C39.8763 3.17457 40.5872 2.46373 40.5872 1.58729C40.5872 0.710839 39.8763 0 38.9999 0C17.4953 0 0 17.4953 0 38.9999C0 60.5044 17.4953 77.9997 38.9999 77.9997C60.5044 77.9997 77.9997 60.5044 77.9997 38.9999C77.9997 32.7978 76.5074 26.6254 73.6836 21.1495Z" fill="white" class="line"/>
<path d="M29.0197 20.891C28.5234 21.1733 28.2168 21.7003 28.2168 22.2709V57.1049C28.2168 57.9816 28.9276 58.6922 29.8041 58.6922C30.6805 58.6922 31.3914 57.9816 31.3914 57.1049V25.0632L54.8919 39.0533L37.6106 50.1873C36.8739 50.6621 36.6612 51.6444 37.136 52.3812C37.6111 53.1182 38.5931 53.3309 39.3302 52.8558L58.7652 40.3339C59.2271 40.0363 59.5022 39.521 59.4924 38.9715C59.4826 38.4221 59.1895 37.9168 58.7173 37.6356L30.616 20.9069C30.125 20.6151 29.516 20.6087 29.0197 20.891Z" fill="white"/>
</svg>
