<svg width="21" height="17" viewBox="0 0 21 17" fill="none" xmlns="http://www.w3.org/2000/svg">
<path d="M8.86957 0C9.08696 0.636703 9.19565 1.16729 9.19565 1.59176C9.19565 1.97379 9.13043 2.48315 9 3.11985C6.08696 3.11985 4.63043 4.58427 4.63043 7.51311C4.63043 8.57428 5.19565 9.16854 6.32609 9.29588C7.97826 9.42322 8.80435 10.4632 8.80435 12.4157C8.80435 13.9014 8.43478 15.0474 7.69565 15.8539C7 16.618 5.71739 17 3.84783 17C1.28261 17 0 15.3021 0 11.9064C0 8.51061 0.695652 5.68789 2.08696 3.4382C3.47826 1.14607 5.73913 0 8.86957 0ZM20.6739 0C20.8913 0.636703 21 1.16729 21 1.59176C21 1.97379 20.9348 2.48315 20.8043 3.11985C17.8913 3.11985 16.4348 4.58427 16.4348 7.51311C16.4348 8.57428 17 9.16854 18.1304 9.29588C19.7826 9.42322 20.6087 10.4632 20.6087 12.4157C20.6087 13.9014 20.2391 15.0474 19.5 15.8539C18.8043 16.618 17.5217 17 15.6522 17C13.087 17 11.8043 15.3021 11.8043 11.9064C11.8043 8.51061 12.5 5.68789 13.8913 3.4382C15.2826 1.14607 17.5435 0 20.6739 0Z" fill="white"/>
</svg>
