<svg width="33" height="24" viewBox="0 0 33 24" fill="none" xmlns="http://www.w3.org/2000/svg">
<path d="M7.43534 23.3613C5.43735 23.3613 3.79385 22.7493 2.50483 21.5252C1.28025 20.2367 0.667969 18.5938 0.667969 16.5966C0.667969 14.084 1.69919 11.3459 3.76162 8.38234C5.88851 5.35433 8.69214 2.68066 12.1725 0.361328L13.6227 1.81091C12.2692 3.22827 11.2057 4.549 10.4323 5.77309C9.65891 6.99718 9.2722 7.99578 9.2722 8.76889C9.2722 9.21987 9.4011 9.63864 9.65891 10.0252C9.98116 10.4117 10.4323 10.8305 11.0124 11.2815C11.9147 11.9902 12.6237 12.7311 13.1393 13.5042C13.6549 14.2773 13.9127 15.3081 13.9127 16.5966C13.9127 18.5938 13.3004 20.2367 12.0758 21.5252C10.8513 22.7493 9.30442 23.3613 7.43534 23.3613ZM26.1906 23.3613C24.1926 23.3613 22.5491 22.7493 21.2601 21.5252C20.0355 20.2367 19.4233 18.5938 19.4233 16.5966C19.4233 14.084 20.4545 11.3459 22.5169 8.38234C24.6438 5.35433 27.4474 2.68066 30.9278 0.361328L32.3779 1.81091C31.0245 3.22827 29.961 4.549 29.1876 5.77309C28.4142 6.99718 28.0275 7.99578 28.0275 8.76889C28.0275 9.21987 28.1564 9.63864 28.4142 10.0252C28.7364 10.4117 29.1876 10.8305 29.7677 11.2815C30.67 11.9902 31.3789 12.7311 31.8946 13.5042C32.4102 14.2773 32.668 15.3081 32.668 16.5966C32.668 18.5938 32.0557 20.2367 30.8311 21.5252C29.6065 22.7493 28.0597 23.3613 26.1906 23.3613Z" fill="#EC9D9D"/>
</svg>
