<svg width="32" height="23" viewBox="0 0 32 23" fill="none" xmlns="http://www.w3.org/2000/svg">
<path d="M6.76737 23C4.76939 23 3.12588 22.388 1.83686 21.1639C0.612286 19.8753 0 18.2325 0 16.2353C0 13.7227 1.03122 10.9846 3.09366 8.02101C5.22054 4.993 8.02417 2.31933 11.5045 0L12.9547 1.44958C11.6012 2.86695 10.5378 4.18767 9.76435 5.41176C8.99094 6.63585 8.60423 7.63445 8.60423 8.40756C8.60423 8.85854 8.73313 9.27731 8.99094 9.66387C9.31319 10.0504 9.76435 10.4692 10.3444 10.9202C11.2467 11.6288 11.9557 12.3697 12.4713 13.1429C12.9869 13.916 13.2447 14.9468 13.2447 16.2353C13.2447 18.2325 12.6324 19.8753 11.4079 21.1639C10.1833 22.388 8.63645 23 6.76737 23ZM25.5227 23C23.5247 23 21.8812 22.388 20.5921 21.1639C19.3676 19.8753 18.7553 18.2325 18.7553 16.2353C18.7553 13.7227 19.7865 10.9846 21.8489 8.02101C23.9758 4.993 26.7795 2.31933 30.2598 0L31.71 1.44958C30.3565 2.86695 29.2931 4.18767 28.5196 5.41176C27.7462 6.63585 27.3595 7.63445 27.3595 8.40756C27.3595 8.85854 27.4884 9.27731 27.7462 9.66387C28.0685 10.0504 28.5196 10.4692 29.0997 10.9202C30.002 11.6288 30.711 12.3697 31.2266 13.1429C31.7422 13.916 32 14.9468 32 16.2353C32 18.2325 31.3877 19.8753 30.1631 21.1639C28.9386 22.388 27.3917 23 25.5227 23Z" fill="#81BD4C"/>
</svg>
