<svg width="237" height="53" viewBox="0 0 237 53" fill="none" xmlns="http://www.w3.org/2000/svg">
<path d="M65.6797 21.5645H78.999V24.6204H69.3699V31.3089H76.8656V34.3649H69.3699V44.2823H65.6797V21.5645Z" fill="white"/>
<path d="M92.8371 44.5131C86.4369 44.5131 81.2476 39.7273 81.2476 32.9235C81.2476 26.1197 86.4369 21.334 92.8371 21.334C99.295 21.334 104.427 26.1197 104.427 32.9235C104.427 39.6697 99.295 44.5131 92.8371 44.5131ZM92.8371 41.2841C97.3345 41.2841 100.621 37.9976 100.621 32.9235C100.621 27.8495 97.3345 24.6206 92.8371 24.6206C88.3397 24.6206 85.0531 27.7918 85.0531 32.9235C85.0531 38.0552 88.3397 41.2841 92.8371 41.2841Z" fill="white"/>
<path d="M118.438 44.5131C112.038 44.5131 106.849 39.7273 106.849 32.9235C106.849 26.1197 112.038 21.334 118.438 21.334C124.896 21.334 130.028 26.1197 130.028 32.9235C129.97 39.6697 124.896 44.5131 118.438 44.5131ZM118.438 41.2841C122.936 41.2841 126.222 37.9976 126.222 32.9235C126.222 27.8495 122.936 24.6206 118.438 24.6206C113.941 24.6206 110.654 27.7342 110.654 32.8659C110.654 37.9976 113.941 41.2841 118.438 41.2841Z" fill="white"/>
<path d="M153.091 32.981C153.091 39.9578 148.306 44.2246 141.041 44.2246H133.66V21.5645H141.041C148.306 21.5645 153.091 26.0042 153.091 32.981ZM141.041 41.2263C146.403 41.2263 149.286 38.1704 149.286 32.981C149.286 27.7917 146.403 24.6204 141.041 24.6204H137.35V41.2263H141.041Z" fill="white"/>
<path d="M170.908 24.505L160.357 41.0533H170.908V44.2822H155.975V41.3992L166.469 24.851H155.975V21.6221H170.908V24.505Z" fill="white"/>
<path d="M185.323 44.5131C178.923 44.5131 173.733 39.7273 173.733 32.9235C173.733 26.1197 178.923 21.334 185.323 21.334C191.781 21.334 196.912 26.1197 196.912 32.9235C196.912 39.6697 191.781 44.5131 185.323 44.5131ZM185.323 41.2841C189.82 41.2841 193.107 37.9976 193.107 32.9235C193.107 27.8495 189.82 24.6206 185.323 24.6206C180.826 24.6206 177.539 27.7342 177.539 32.8659C177.539 37.9976 180.826 41.2841 185.323 41.2841Z" fill="white"/>
<path d="M219.169 21.5645V44.2823H215.479L204.293 27.3304V44.2823H200.603V21.5645H204.293L215.479 38.4587V21.5645H219.169Z" fill="white"/>
<path d="M236.582 24.6204H227.761V31.2512H235.602V34.3072H227.761V41.2263H236.582V44.2823H224.07V21.5645H236.582V24.6204Z" fill="white"/>
<path d="M31.7771 31.5971C31.7771 31.5971 32.4114 32.3466 31.6618 33.6151C31.4312 33.9611 31.1429 34.48 30.7393 35.1143C31.0852 35.6909 31.4888 36.3828 31.9501 37.0171C32.5267 35.9792 32.988 35.1143 33.2763 34.5377C33.9682 33.2692 34.9484 33.4422 34.9484 33.4422C36.7935 33.5575 38.7539 32.5196 40.1954 29.9249C41.0026 28.5411 42.5594 25.1392 44.0009 21.449C44.1162 21.2184 44.0009 20.9301 43.7703 20.7571C43.482 20.5841 43.136 20.6994 43.0207 20.9877L39.1575 28.5988C38.9269 29.1177 38.3503 29.3484 37.9467 29.1177C37.716 29.0024 37.6584 28.6564 37.8314 28.3681L42.1558 20.4688C42.2711 20.2382 42.2135 19.8922 41.9252 19.7192L41.8675 19.6616C41.5792 19.4886 41.2909 19.6039 41.118 19.8922L36.6782 27.6762C36.5052 27.9645 36.1592 28.1375 35.9286 27.9645L35.8709 27.9069L35.8133 27.8492C35.5826 27.7339 35.525 27.3879 35.698 27.042L40.2531 19.3156C40.426 19.0273 40.3107 18.739 40.0801 18.566L40.0224 18.5084C39.7918 18.3354 39.4458 18.4507 39.2729 18.6814L34.7178 26.523C34.5448 26.8113 34.1988 26.9267 33.9682 26.8113C33.5646 26.5807 33.5069 26.0041 33.8529 25.5428L38.5233 18.3931C38.6963 18.1048 38.5809 17.7588 38.3503 17.6435C38.1197 17.5282 37.8314 17.5858 37.6584 17.7588C35.179 20.8724 33.0456 23.9284 32.2384 25.3122C30.7393 27.8492 30.7393 30.0979 31.7771 31.5971Z" fill="white"/>
<path d="M26.8183 43.3021C26.6453 42.8985 26.4146 42.5525 26.2417 42.1489C24.6272 44.513 23.474 45.8391 21.9172 47.4536C20.0721 49.2987 20.1874 51.6051 21.8596 52.5276C23.5317 53.5078 25.6074 52.47 26.2417 49.9329C26.6453 48.3185 27.1066 46.9923 27.7985 45.3202C27.5102 44.6859 27.2219 44.0517 26.8183 43.3021Z" fill="white"/>
<path d="M36.5622 47.3961C34.7171 45.551 33.5063 44.0518 31.3729 40.8229C29.2395 37.594 27.3944 34.4804 26.5871 33.2119C25.8375 31.9433 26.7024 30.7325 26.7024 30.7325C28.0286 29.0027 28.2592 26.6387 26.8178 24.1017C24.7997 20.6421 20.1869 17.6438 17.4193 19.2583C14.7093 20.8151 14.9399 26.3504 16.958 29.8099C18.4571 32.347 20.5905 33.3272 22.7816 33.0389C22.7816 33.0389 24.2807 32.9235 25.0303 34.1921C25.7222 35.4606 27.5097 38.6895 29.2395 42.149C30.9692 45.6086 31.6611 47.3961 32.2954 49.9331C32.9297 52.4701 35.0054 53.5079 36.6775 52.5277C38.292 51.5475 38.4073 49.2412 36.5622 47.3961Z" fill="white"/>
<path d="M45.7298 10.1481C44.6343 10.2057 43.5964 10.3787 42.5586 10.7247C41.2324 4.61276 35.7548 0 29.3546 0C22.8967 0 17.4191 4.61276 16.1506 10.7823C14.9397 10.3787 13.6135 10.1481 12.2874 10.1481C5.82953 10.1481 0.58252 15.3951 0.58252 21.8529C0.58252 28.2531 5.71421 33.4425 12.0567 33.5578L13.7289 47.1654H17.5344C17.938 47.1654 18.3416 46.9924 18.5723 46.6465C18.5723 46.6465 18.5723 46.6465 18.5723 46.5888C19.2065 45.7239 18.6299 44.5707 17.5344 44.5707H15.9776L14.3631 30.8478L13.0946 30.9631C12.8063 30.9631 12.5757 31.0208 12.2874 31.0208C7.27101 31.0208 3.17719 26.9269 3.17719 21.9106C3.17719 16.8942 7.27101 12.8004 12.2874 12.8004C13.7865 12.8004 15.2857 13.1464 16.5542 13.8959L18.3416 14.8185L18.4569 12.8004C18.8606 7.09212 23.5886 2.65234 29.2969 2.65234C34.9475 2.65234 39.7333 7.03445 40.1369 12.6851L40.3099 14.5878L41.982 13.7806C42.3856 13.55 42.8469 13.377 43.3081 13.2617C48.9011 11.5319 54.4364 15.3374 55.1283 20.6997C55.8779 26.5233 51.0922 31.5397 45.2686 31.0208L44.0001 30.9055L42.3279 44.686H40.8865C39.8486 44.686 39.2143 45.8969 39.8486 46.7041C39.8486 46.7041 39.8486 46.7041 39.8486 46.7618C40.0792 47.1077 40.4828 47.2807 40.8865 47.2807H44.692L46.3641 33.6731C53.3409 33.5578 58.8185 27.2729 57.723 20.0655C56.8004 14.1842 51.5534 9.97508 45.7298 10.1481Z" fill="white"/>
</svg>
