<svg width="82" height="89" viewBox="0 0 82 89" fill="none" xmlns="http://www.w3.org/2000/svg">
<path d="M80.9343 26.4558C80.6343 24.5558 80.6343 22.5558 79.8343 20.7558C76.9343 14.6558 73.0343 9.35576 67.7343 5.05576C64.7343 2.55576 61.2343 1.25576 57.4343 0.755759C52.6343 0.155759 48.1343 1.35576 43.7343 3.05576C34.1343 6.75576 26.1343 12.5558 21.8343 22.3558C19.5343 27.6558 18.2343 33.1558 17.6343 38.8558C16.9343 45.4558 14.6343 51.1558 8.8343 55.0558C8.4343 55.3558 8.13429 55.6558 7.73429 55.9558C2.53429 60.6558 0.0342911 66.3558 1.23429 73.3558C1.63429 75.9558 1.93429 78.4558 4.73429 79.6558C4.93429 79.7558 5.1343 79.9558 5.3343 80.1558C7.6343 82.3558 9.8343 84.6558 12.1343 86.8558C12.5343 87.1558 12.8343 87.6558 13.3343 87.7558C15.9343 88.3558 18.4343 88.7558 21.1343 88.5558C27.9343 87.8558 34.5343 86.5558 40.9343 84.3558C48.0343 81.9558 54.8343 79.1558 60.6343 74.2558C73.2343 63.6558 80.7343 50.4558 81.5343 33.8558C81.7343 31.2558 81.3343 28.8558 80.9343 26.4558ZM5.23429 78.0558C4.13429 77.8558 3.3343 77.1558 2.9343 76.0558C0.334303 68.9558 2.33429 61.6558 8.03429 56.8558C8.53429 56.4558 9.03429 55.9558 9.53429 55.5558C15.6343 51.5558 17.9343 45.5558 18.6343 38.7558C19.2343 33.6558 20.2343 28.7558 22.1343 23.9558C26.0343 14.5558 33.3343 8.65576 42.5343 4.75576C46.6343 3.05576 50.8343 1.55576 55.4343 1.75576C63.3343 2.15576 69.7343 6.55576 72.4343 14.0558C74.6343 20.3558 75.6343 26.8558 74.8343 33.4558C74.2343 38.7558 72.4343 43.7558 69.6343 48.2558C61.9343 60.9558 51.1343 70.1558 37.1343 75.4558C29.9343 78.2558 25.1343 78.9557 15.7343 79.2558C12.5343 79.6558 8.83429 78.9558 5.23429 78.0558ZM49.5343 79.4558C40.5343 83.4558 31.0343 86.2558 21.1343 87.2558C20.9343 87.2558 20.8343 87.2558 20.6343 87.3558C17.6343 87.5558 14.6343 87.8558 12.3343 84.8558C11.1343 83.2558 9.4343 82.1558 7.6343 80.6558C9.9343 80.6558 11.5343 81.2558 12.9343 82.7558C14.5343 84.4557 16.2343 86.0558 18.7343 86.6558C17.1343 84.5558 14.8343 83.0558 12.6343 81.2558C14.4343 80.9557 15.9343 81.0558 17.2343 82.3558C18.5343 83.6558 20.0343 84.5558 21.9343 84.8558C20.7343 83.2558 18.9343 82.4558 17.3343 81.1558C18.9343 80.8558 20.1343 80.6558 21.3343 81.9558C22.2343 82.9558 23.3343 83.8558 24.9343 84.2558C23.8343 82.7558 22.5343 81.9557 21.3343 80.7558C22.9343 80.3558 24.3343 80.0558 25.7343 81.3558C26.5343 82.0558 27.5343 82.6558 29.0343 82.5558C27.8343 81.7558 26.9343 81.0558 25.7343 80.1558C27.0343 79.9558 28.1343 79.6558 29.2343 79.7558C30.2343 79.8558 30.8343 81.1558 32.1343 81.2558C31.5343 80.5558 31.0343 79.9557 30.4343 79.2558C50.1343 73.6558 64.7343 61.9558 73.7343 43.5558C74.6343 44.0558 75.2343 45.4558 76.7343 45.4558C76.5343 44.5558 75.8343 44.1558 75.2343 43.6558C74.9343 43.3558 74.6343 43.1558 74.3343 42.8558C73.5343 42.2558 74.0343 41.5558 74.3343 41.0558C74.6343 40.4558 75.1343 41.0558 75.4343 41.2558C75.8343 41.4558 76.1343 41.8558 76.7343 41.7558C76.0343 40.6558 73.7343 40.1558 75.3343 38.1558C75.7343 38.4558 76.1343 38.6558 76.5343 38.9558C75.8343 37.8558 75.1343 36.6558 76.0343 35.3558C76.4343 34.7558 76.8343 35.8558 77.3343 35.5558C77.5343 35.0558 77.0343 34.8558 76.6343 34.5558C76.2343 34.2558 76.0343 34.0558 76.1343 33.5558C76.8343 26.7558 75.8343 20.0558 73.7343 13.5558C76.1343 17.0558 78.0343 20.7558 78.8343 25.1558C84.0343 50.4558 65.6343 72.2558 49.5343 79.4558Z" fill="#EA5455" fill-opacity="0.3"/>
<path d="M40.6343 47.6558C48.7343 47.6558 58.0343 40.3558 59.9343 32.4558C61.9343 24.2558 54.8343 16.1558 46.6343 17.1558C45.3343 17.3558 44.0343 17.8558 42.8343 18.2558C36.2343 20.2558 31.7343 24.5558 29.5343 31.1558C26.0343 41.0558 33.9343 47.9557 40.6343 47.6558ZM30.1343 33.6558C31.4343 24.5557 40.2343 18.5558 47.0343 18.6558C53.8343 18.7558 58.9343 23.8558 58.6343 30.2558C58.5343 32.7558 57.4343 35.0558 56.0343 37.0558C52.7343 41.5558 48.5343 44.7558 43.0343 45.9558C35.2343 47.4558 28.9343 41.4557 30.1343 33.6558Z" fill="#EA5455" fill-opacity="0.3"/>
<path d="M55.0341 45.9559C54.4341 45.8559 53.8341 45.7559 53.6341 45.7559C49.2341 45.8559 46.1341 47.8559 44.5341 51.4559C43.8341 53.1559 43.7341 54.8559 44.9341 56.3559C46.1341 57.8559 47.8341 58.2559 49.6341 57.8559C52.8341 57.2559 55.4341 55.5559 57.4341 53.0559C60.0341 50.0559 58.9341 46.9559 55.0341 45.9559ZM56.9341 51.6559C55.1341 54.4559 52.5341 56.4559 49.2341 56.9559C46.1341 57.4559 44.2341 55.0559 45.2341 52.0559C46.3341 48.8559 48.8341 47.0559 52.1341 47.0559C53.2341 47.0559 54.3341 47.1559 55.4341 47.5559C57.5341 48.3559 58.1341 49.8559 56.9341 51.6559Z" fill="#EA5455" fill-opacity="0.3"/>
<path d="M39.7341 49.6557C38.6341 48.2557 36.7341 47.7557 35.0341 48.4557C33.0341 49.3557 31.7341 50.9557 31.0341 52.8557C30.1341 55.1557 31.5341 56.9557 34.0341 56.9557C35.8341 56.9557 38.0341 55.6557 39.3341 53.9557C40.5341 52.4557 40.7341 50.9557 39.7341 49.6557ZM38.7341 53.2557C37.5341 54.9557 35.9341 56.0557 34.1341 56.2557C31.9341 56.2557 31.0341 54.9557 31.5341 53.1557C32.1341 51.3557 34.7341 49.4557 36.5341 49.4557C37.5341 49.4557 38.4341 49.8557 39.0341 50.7557C39.5341 51.6557 39.2341 52.5557 38.7341 53.2557Z" fill="#EA5455" fill-opacity="0.3"/>
<path d="M5.23438 75.1558C10.0344 77.1558 14.8344 78.1558 19.8344 76.0558C14.9344 76.4558 10.0344 76.0558 5.23438 75.1558Z" fill="#EA5455" fill-opacity="0.3"/>
<path d="M15.7343 72.9556C12.3343 73.2556 9.03428 72.9556 5.63428 73.3556C8.93428 74.0556 12.4343 74.9556 15.7343 72.9556Z" fill="#EA5455" fill-opacity="0.3"/>
<path d="M12.8343 70.4556C10.6343 70.6556 8.43428 70.9556 6.13428 71.1556C8.43428 71.9556 10.7343 72.0556 12.8343 70.4556Z" fill="#EA5455" fill-opacity="0.3"/>
<path d="M40.6345 68.9556C40.0345 69.0556 39.6345 69.3556 39.5345 69.9556C39.4345 70.3556 39.7345 70.6556 40.1345 70.6556C40.7345 70.5556 41.1345 70.2556 41.3345 69.6556C41.4345 69.2556 41.0345 69.0556 40.6345 68.9556Z" fill="#EA5455" fill-opacity="0.3"/>
<path d="M10.7344 68.6558C9.03437 68.5558 7.63437 68.5558 6.23438 69.0558C7.73438 69.1558 9.23438 69.4558 10.7344 68.6558Z" fill="#EA5455" fill-opacity="0.3"/>
<path d="M67.4341 14.8559C67.9341 14.9559 68.1341 14.5559 68.1341 14.1559C68.2341 13.6559 67.9341 13.3559 67.4341 13.2559C66.9341 13.2559 66.6341 13.5559 66.6341 13.9559C66.5341 14.5559 66.9341 14.7559 67.4341 14.8559Z" fill="#EA5455" fill-opacity="0.3"/>
<path d="M69.8344 21.0558C70.3344 21.1558 70.4344 20.5558 70.5344 20.1558C70.5344 19.6558 70.3344 19.1558 69.8344 19.1558C69.3344 19.1558 69.2344 19.4558 69.2344 19.8558C69.2344 20.3558 69.2344 20.9558 69.8344 21.0558Z" fill="#EA5455" fill-opacity="0.3"/>
</svg>
