<svg width="56" height="63" viewBox="0 0 56 63" fill="none" xmlns="http://www.w3.org/2000/svg">
<path d="M55.4092 23.8395C56.4838 16.1833 52.9915 8.79572 46.2755 4.76614C41.3057 1.81112 35.7986 0.736594 30.2915 0.602274C20.8892 0.467955 13.3673 4.63184 7.59154 11.7508C2.4874 18.0638 -0.601936 25.1827 0.3383 33.5105C0.875577 38.2117 2.75605 42.2413 7.45723 44.2561C11.8898 46.0022 15.785 44.5247 19.2773 41.704C20.6205 40.6294 21.9637 39.5549 23.4412 38.4803C24.1128 39.5549 24.1128 40.4951 24.3815 41.4353C25.3217 46.4052 24.6501 51.5093 24.3815 56.4791C24.2471 59.0312 24.6501 59.8371 27.0678 60.7773C33.6495 63.598 43.7234 61.7176 48.9619 56.8821C51.2453 54.733 51.9169 52.3152 50.9767 49.3602C49.7678 45.7336 47.6187 42.6442 45.4696 39.5549C44.395 38.0774 43.3205 36.4655 42.2459 34.988C45.201 33.9134 47.8873 32.8389 50.3051 31.0927C52.9915 29.3466 54.872 27.0632 55.4092 23.8395ZM42.5146 40.0922C44.2607 42.6442 45.8726 45.1963 47.2157 47.7483C49.4992 52.0466 48.9619 53.927 44.9323 56.4791C40.2311 59.4341 35.2613 60.1057 29.8886 59.0312C29.0826 58.8969 28.411 58.4939 27.6051 58.2253C26.9335 57.9566 26.9335 57.4193 26.9335 56.7477C27.0679 55.9418 27.6051 56.3448 28.1424 56.3448C29.7542 56.2105 31.5004 57.0164 33.2465 56.2105C31.5004 55.4046 29.8886 55.6732 28.2767 55.2702C27.7395 55.1359 26.7992 55.6732 27.0678 54.5986C27.3365 53.6584 26.3963 52.1809 28.2767 51.9122C29.8886 51.6436 31.5004 52.0466 33.1122 51.2406C31.3661 49.6288 29.3513 50.1661 27.4708 50.7034C26.7992 48.9572 27.6051 48.2856 29.217 48.017C31.3661 47.614 33.5152 47.614 35.7986 47.614C33.2465 45.1963 32.172 45.1963 27.2022 47.3454C27.0679 46.4052 26.9335 45.4649 26.7992 44.5247C26.6649 42.7785 26.2619 41.1667 25.5903 39.5549C24.6501 37.1371 24.6501 37.1371 27.2022 36.3312C29.7542 35.5253 32.3063 35.7939 34.8584 35.6596C36.6045 35.6596 38.6193 34.8537 40.0968 35.391C41.843 36.1969 41.5743 38.6146 42.5146 40.0922ZM34.4554 33.3762C28.411 32.9732 23.3069 34.8537 18.74 38.8833C17.3969 40.0922 16.0537 41.1667 14.3075 41.704C10.4122 43.1815 6.65131 41.9726 4.63652 38.346C3.42764 36.1969 2.75605 33.5105 2.75605 30.5555C3.15901 12.5567 20.8892 -1.14389 38.2164 3.6916C44.9323 5.57207 50.9767 9.60167 52.4542 17.3922C53.7974 24.1082 52.5885 27.0632 46.4098 30.4211C42.7832 32.4359 38.7536 33.7791 34.4554 33.3762Z" fill="#EA5455" fill-opacity="0.3"/>
<path d="M41.4404 7.45279C39.6942 6.10959 37.5451 5.43803 35.2617 5.30371C40.6345 7.72146 43.8582 12.0197 46.4102 17.1238C47.8877 20.2131 47.7534 23.0338 45.47 25.7202C44.7984 26.5261 44.1268 27.3321 43.7238 28.4066C45.067 28.8096 46.1416 28.4066 46.9475 27.4664C49.4996 25.183 50.5741 22.2279 49.6339 19.0043C48.1564 14.1688 45.3357 10.2735 41.4404 7.45279Z" fill="#EA5455" fill-opacity="0.3"/>
<path d="M7.85976 23.168C5.17337 26.123 5.57633 33.1076 8.26272 35.5254C9.06863 36.197 9.87455 36.4656 10.9491 36.197C10.0089 34.1822 8.66569 32.3017 8.12841 30.1526C7.59113 27.8692 7.59112 25.5857 7.85976 23.168Z" fill="#EA5455" fill-opacity="0.3"/>
<path d="M44.5292 20.2134C44.3949 18.3329 44.1262 16.5868 42.5144 15.5122C43.589 19.1388 42.7831 22.6311 41.7085 26.5264C44.2606 24.9146 44.7978 22.7655 44.5292 20.2134Z" fill="#EA5455" fill-opacity="0.3"/>
<path d="M38.3505 17.6606C39.5594 20.8843 37.5446 23.3021 37.0073 25.8541C40.6339 24.108 41.4399 19.9441 38.3505 17.6606Z" fill="#EA5455" fill-opacity="0.3"/>
<path d="M32.5752 25.3168C34.59 24.5109 34.8586 23.0333 34.59 21.0186C33.6498 22.4961 32.7095 23.5706 32.5752 25.3168Z" fill="#EA5455" fill-opacity="0.3"/>
<path d="M11.3529 28.6753C10.9499 29.4812 10.547 29.8842 10.4126 30.4214C10.2783 30.9587 10.547 31.496 11.0842 31.8989C11.4872 32.1676 11.8902 32.3019 12.2931 31.8989C12.6961 31.496 12.4274 30.9587 12.1588 30.5558C11.8902 30.0185 11.7558 29.6155 11.3529 28.6753Z" fill="#EA5455" fill-opacity="0.3"/>
</svg>
