<svg width="101" height="73" viewBox="0 0 101 73" fill="none" xmlns="http://www.w3.org/2000/svg">
<path d="M0.803489 45.3259C11.0531 62.356 26.0332 71.5017 45.7439 72.6055C57.4126 73.2363 67.8198 69.1365 77.1233 62.5137C93.3649 50.8449 100.303 34.288 100.934 14.7349C100.934 11.2659 100.461 7.79677 99.9877 4.32769C99.1993 0.0701808 99.1993 0.0701903 95.0994 1.33167C76.3349 7.16604 57.8857 13.9465 39.9095 21.6731C26.6639 27.3498 13.7337 33.6572 1.7496 41.8569C-0.300309 43.276 -0.457995 43.276 0.803489 45.3259ZM56.3088 17.4156C66.4007 13.7888 76.3349 10.1621 86.4267 6.5353C87.0575 6.37762 87.5305 5.90457 87.6882 7.00836C88.6343 15.208 88.6343 23.25 85.6383 31.1342C84.3768 34.6033 82.4846 37.757 80.277 40.7531C79.6463 41.5415 79.3309 41.3838 78.5425 40.9108C72.8658 37.1263 68.4506 31.9227 63.72 27.0344C61.1971 24.3538 58.5164 21.8308 55.9934 19.1501C55.6781 18.8348 55.3627 18.5194 54.8896 18.5194C55.205 17.731 55.8357 17.5733 56.3088 17.4156ZM45.2708 21.6731C48.1092 20.5693 51.1052 19.4655 53.9435 18.3617C54.2589 18.204 54.7319 18.204 55.0473 18.5194C60.5663 25.7729 66.243 32.7111 72.8658 39.0185C74.4426 40.5954 76.1772 42.0146 78.5425 42.803C76.1772 45.6413 73.4965 47.8489 70.6582 49.7411C63.0893 54.9448 54.8896 58.7292 45.7439 59.9907C43.5363 60.3061 41.3287 60.1484 39.2788 60.1484C38.3326 60.1484 38.175 59.833 38.3326 58.8869C39.2788 53.5256 40.2249 48.0066 41.171 42.6453C42.2748 36.0225 44.0093 29.5574 44.4824 22.7769C44.6401 22.3039 44.7978 21.9885 45.2708 21.6731ZM7.42628 39.8069C15.6259 34.761 35.0213 25.2999 44.0093 22.3039C42.7478 27.6652 41.644 32.8688 40.3826 37.9147C38.8057 44.6952 37.5442 51.4757 36.4404 58.4138C36.2827 59.6753 35.8097 59.833 34.7059 59.6753C23.0372 57.1524 13.576 51.4757 6.95323 41.3838C6.63786 40.5954 6.79554 40.28 7.42628 39.8069ZM2.69572 42.6453C5.21868 41.2261 5.21868 41.2261 6.63785 43.5914C15.1529 57.9408 35.9674 67.5596 55.9934 60.6215C65.6123 57.3101 74.285 52.4218 81.2231 44.8529C87.8459 37.5994 91.1573 28.9267 91.788 19.1501C92.1034 14.8926 91.9457 10.4774 91.1573 6.21994C90.8419 4.80077 91.788 4.64306 92.7342 4.32769C95.4148 3.38158 95.5725 3.38159 95.8879 6.06224C98.4108 24.9845 93.6803 41.6992 80.1193 55.4178C73.3388 62.1983 65.1392 66.7712 55.6781 68.8211C54.2589 69.1365 53.1551 69.2941 52.5243 67.875C52.3667 67.5596 52.0513 67.4019 51.7359 67.4019C51.4205 68.1903 52.209 68.6634 52.209 69.4518C50.9475 69.6095 49.5283 70.2403 48.8976 68.348C48.7399 67.875 48.5822 67.0865 47.9515 67.4019C47.3207 67.7173 47.7938 68.348 47.9515 68.8211C47.9515 69.1365 48.1092 69.2942 48.2668 69.6095C46.3746 69.9249 46.3746 69.9249 44.3247 66.9289C44.0093 67.4019 44.3247 67.7173 44.4824 68.1903C44.6401 68.6634 44.7978 69.1365 44.9554 69.6095C43.8516 69.7672 42.9055 69.7672 42.1171 69.2942C41.3287 68.8211 41.4864 67.7173 40.6979 67.0865C40.2249 67.875 40.8556 68.5057 40.6979 69.1365C38.3326 70.0826 38.0173 67.7173 37.0712 66.4558C36.7558 66.9289 36.9135 67.2442 36.9135 67.4019C37.0712 67.7173 37.0712 68.0327 37.2289 68.348C35.652 68.5057 35.652 68.5057 33.4444 65.5097C33.129 65.8251 33.2867 66.1404 33.4444 66.4558C33.4444 66.7712 33.6021 67.0865 33.7598 67.5596C31.7099 67.7173 30.9214 66.6135 30.4484 64.879C29.6599 65.5097 30.4484 65.9828 30.133 66.4558C27.9254 66.7712 27.9254 64.7213 27.137 63.1444C26.5062 63.9328 26.8216 64.5636 26.9793 65.1943C24.7717 65.1943 25.5601 62.9867 24.2986 62.1983C23.6679 62.829 24.2986 63.4598 24.141 63.9328C22.091 63.6175 22.8795 61.5676 21.9334 60.6215C21.1449 61.2522 21.9334 61.8829 21.9334 62.6713C20.1988 62.5137 19.8834 61.0945 19.4104 59.6753C19.2527 60.3061 19.2527 60.6214 19.2527 61.0945C17.3605 60.6214 17.3605 59.0446 16.7297 57.6254C16.572 58.0985 16.572 58.5715 16.4144 58.8869C14.2068 58.4138 14.9952 56.3639 14.6798 54.7871C13.7337 55.2601 14.0491 56.0486 13.8914 56.5216C11.9992 55.8909 12.6299 54.314 12.3145 53.0525C11.5261 53.2102 11.6838 53.9987 11.3684 54.314C9.31851 53.5256 10.4223 51.9487 10.4223 50.5296C9.16082 52.4218 8.3724 51.4757 7.58397 50.3719C6.00711 48.322 4.43026 46.4297 3.01109 44.3798C1.59192 43.4337 1.7496 43.1183 2.69572 42.6453Z" fill="#EA5455" fill-opacity="0.3"/>
<path d="M56.7811 40.911C57.7272 37.9149 57.5696 34.9189 56.6234 31.9229C56.3081 31.1344 55.835 31.1344 55.3619 31.9229C54.2581 33.6574 53.6274 35.7073 53.4697 37.2842C53.4697 39.0187 53.6274 40.1225 54.4158 41.0686C55.2043 42.0147 56.4657 42.0148 56.7811 40.911ZM55.6773 33.8151C56.3081 36.0227 56.1504 38.2303 55.6773 40.5956C54.2582 38.861 54.2582 35.865 55.6773 33.8151Z" fill="#EA5455" fill-opacity="0.3"/>
<path d="M25.7175 48.0066C26.0329 48.0066 26.3482 48.0066 26.5059 48.0066C29.5019 48.0066 31.3942 46.272 32.498 42.9606C33.1287 40.9107 32.498 40.1223 30.4481 40.753C28.0828 41.3838 26.0329 42.4876 24.456 44.3798C23.983 45.0105 22.8792 45.4836 23.3522 46.5874C23.6676 47.6912 24.7714 47.8489 25.7175 48.0066ZM25.5598 45.3259C27.1367 43.5914 29.0289 42.6453 31.3942 41.6992C30.6057 45.4836 28.8712 47.0605 26.1905 46.7451C25.7175 46.7451 25.2444 46.7451 24.9291 46.272C24.7714 45.799 25.2444 45.4836 25.5598 45.3259Z" fill="#EA5455" fill-opacity="0.3"/>
<path d="M78.0699 23.7234C79.6468 21.5158 80.7506 19.1505 80.4352 16.1545C80.4352 15.5237 80.2775 14.893 79.6468 14.5776C78.8583 14.2623 78.3853 14.5776 77.7545 15.0507C76.3354 16.3122 75.8623 18.0467 75.8623 20.2543C75.7046 21.2004 76.02 22.3042 76.4931 23.408C76.8084 24.5118 77.4392 24.5118 78.0699 23.7234ZM78.7007 15.9968C79.4891 17.889 78.8583 20.0966 76.9661 22.4619C76.8084 19.7813 76.6507 17.5737 78.7007 15.9968Z" fill="#EA5455" fill-opacity="0.3"/>
</svg>
