<svg width="78" height="122" viewBox="0 0 78 122" fill="none" xmlns="http://www.w3.org/2000/svg">
<path d="M69.2145 8.70601C60.9331 -0.062465 46.0754 -5.01505 33.897 8.05648C23.2612 19.423 18.8769 32.9005 20.3383 48.2453C20.9878 55.39 22.5304 62.3724 26.184 68.7863C26.0216 68.8675 25.778 69.0299 25.5345 69.1923C23.8295 70.4101 22.0433 71.5468 20.6631 73.2518C20.0948 73.9825 19.77 74.7944 20.1759 75.7686C20.5819 76.6617 21.3938 76.9865 22.3681 76.9865C23.0988 76.9865 23.8295 76.9053 24.5602 76.8241C24.5602 77.7984 24.073 78.4479 23.6671 79.1786C20.9066 84.5371 18.3898 89.9768 15.8729 95.4165C14.5739 98.2581 13.4372 101.1 11.651 103.779C11.2451 104.347 10.9203 104.835 9.94605 104.753C6.61728 104.347 3.77563 105.159 1.66471 108.163C0.0409129 110.437 0.446861 113.359 2.88255 114.821C4.8311 116.039 6.94201 115.795 9.05294 115.389C10.1084 115.146 10.6767 115.389 11.0827 116.363C11.9758 118.393 13.356 119.936 15.4669 120.91C17.6591 121.966 19.9324 121.478 21.1502 119.449C23.0176 116.363 23.3423 113.116 21.7997 109.787C21.3938 108.975 21.2314 108.244 21.475 107.433C21.8809 105.89 22.2869 104.347 22.774 102.805C25.5345 94.8482 30.3246 88.0283 34.9524 81.1271C35.6832 81.8578 36.4138 82.5886 37.2257 83.2381C37.8753 83.7252 38.606 84.05 39.4179 83.644C40.1486 83.2381 40.311 82.5074 40.2298 81.7767C40.2298 79.5845 40.2298 77.3112 40.1486 75.1191C40.0674 74.3072 40.311 74.1448 41.0417 73.9825C49.323 71.9527 56.3865 67.7309 62.8005 62.21C68.2402 57.501 71.8125 51.4929 74.6542 44.9166C80.0127 32.7381 79.4444 19.5042 69.2145 8.70601ZM19.6888 111.086C20.7443 113.278 20.3383 115.552 19.2016 117.662C18.6333 118.718 17.8214 118.718 16.766 118.312C15.061 117.662 14.3303 116.12 13.4372 114.74C11.8946 112.223 11.8946 112.223 9.05294 112.71C7.75391 112.953 6.4549 113.197 5.07468 112.953C4.1004 112.791 3.53206 112.223 3.12611 111.33C2.72016 110.355 3.28851 109.787 3.85683 109.138C5.15587 107.676 6.77966 106.945 8.72821 107.189C9.54011 107.27 10.352 107.27 11.2451 107.351C12.5441 107.514 13.356 107.027 13.8431 105.809C15.3857 101.506 17.9026 97.6898 19.77 93.5492C21.9621 88.4342 24.3166 83.4005 25.9404 78.1231C26.3464 76.8241 26.7523 75.5251 28.7008 75.6874C29.188 77.7172 28.1325 80.64 31.9484 80.7212C30.7306 82.5886 29.6751 84.3747 28.5384 86.0797C24.3978 92.1689 20.9067 98.5829 19.2829 105.809C18.8769 107.676 18.7957 109.3 19.6888 111.086ZM61.5826 59.8555C55.4934 65.2952 48.5111 69.4358 40.4733 71.4656C39.7426 71.628 39.0931 71.9527 38.4436 72.1963C37.9565 72.3587 37.307 72.4398 37.307 73.0082C37.307 73.6577 37.9565 73.5765 38.4436 73.7389C38.8495 73.8201 39.0119 73.9013 38.8495 74.3884C38.2812 76.337 38.2 78.2855 37.8753 80.3964C36.5762 78.0419 34.6277 77.7172 32.3544 78.2855C31.5425 78.5291 31.1365 78.2855 31.1365 77.3112C31.1365 76.5805 31.0554 75.7686 30.8118 75.0379C30.487 73.7389 29.5127 73.1706 28.1325 73.4141C26.1839 73.6577 24.5602 74.8755 22.2057 74.7132C23.8295 72.6022 25.6157 70.8973 27.5642 69.2735C26.5087 68.0556 25.778 66.1883 25.2909 64.2397C23.0176 56.1207 21.1502 47.9206 21.9621 39.4769C23.0988 27.7044 27.483 17.3121 36.0079 8.78721C46.6437 -1.92982 59.3905 1.96728 66.6976 9.19316C75.9532 18.3676 78.1453 30.3025 73.1927 42.3997C70.5135 48.9761 67.0223 55.0653 61.5826 59.8555Z" fill="#EA5455" fill-opacity="0.3"/>
<path d="M45.1015 5.45844C44.046 5.29606 43.3153 5.94557 42.5034 6.51389C38.2815 9.68029 35.1963 13.7398 32.3547 18.124C30.2438 21.3716 28.3764 24.7815 27.8081 28.7598C27.4833 30.952 27.4021 33.2253 29.1071 35.255C30.0814 22.833 37.3073 13.9833 45.1015 5.45844Z" fill="#EA5455" fill-opacity="0.3"/>
<path d="M68.8903 29.5716C69.8645 23.8883 69.9457 18.2862 67.5912 12.9277C67.5912 18.3674 67.7536 23.8883 66.5358 29.2469C65.3991 34.6054 63.2882 39.7203 61.1772 44.5917C64.6684 40.1263 67.8348 35.4173 68.8903 29.5716Z" fill="#EA5455" fill-opacity="0.3"/>
<path d="M36.7393 25.9993C40.1492 19.6665 43.5592 13.9021 48.2682 8.78711C43.8839 8.8683 36.4145 19.9913 36.7393 25.9993Z" fill="#EA5455" fill-opacity="0.3"/>
<path d="M62.3954 54.4966C58.4171 58.4749 53.221 60.5046 48.918 63.9146C54.8448 62.8591 59.229 59.5303 62.3954 54.4966Z" fill="#EA5455" fill-opacity="0.3"/>
<path d="M28.62 60.6674C27.9705 57.095 27.4021 53.5227 26.7526 49.8691C26.3467 50.1127 26.3467 50.4375 26.3467 50.681C26.5091 53.8474 26.6714 57.0138 26.915 60.1802C26.9962 61.5605 27.4833 62.8595 28.0516 64.1585C28.214 64.4833 28.3764 64.8892 28.8635 64.808C29.3507 64.6457 29.2695 64.1585 29.2695 63.8338C29.1071 62.6971 28.7824 61.6416 28.62 60.6674Z" fill="#EA5455" fill-opacity="0.3"/>
<path d="M48.5113 14.0645C48.6737 13.7398 49.1609 13.415 48.7549 13.0903C48.4301 12.7655 48.0242 13.0902 47.6994 13.3338C45.9945 14.7952 44.6954 16.5814 43.7211 18.6111C43.1528 19.6666 42.9905 20.8033 43.3964 22.1835C45.4261 19.5042 46.8064 16.7438 48.5113 14.0645Z" fill="#EA5455" fill-opacity="0.3"/>
<path d="M50.9478 15.7695C51.1102 15.3636 51.1102 14.9576 50.623 14.7952C50.2171 14.5517 49.8111 14.7952 49.5676 15.12C48.5121 16.825 47.2131 18.4488 47.7002 21.0468C49.6488 19.5042 50.2983 17.6369 50.9478 15.7695Z" fill="#EA5455" fill-opacity="0.3"/>
<path d="M53.9513 17.0682C54.1136 16.7434 54.1136 16.4187 53.7889 16.1751C53.4641 15.9315 53.1394 16.1751 52.977 16.4187C52.4086 17.393 51.5967 18.2861 51.8403 19.7475C53.0581 19.098 53.4641 18.0425 53.9513 17.0682Z" fill="#EA5455" fill-opacity="0.3"/>
<path d="M62.7202 17.7178C62.3142 18.8544 61.5023 19.7475 61.9894 21.0465C62.1518 21.4525 62.3954 21.3713 62.6389 21.2089C63.4508 20.3158 63.3696 19.1792 63.2073 18.1237C63.1261 18.0425 63.0449 17.9613 62.7202 17.7178Z" fill="#EA5455" fill-opacity="0.3"/>
<path d="M30.0818 57.176C29.9194 58.1503 30.3254 58.9622 30.8125 59.7741C30.9749 60.0176 31.2996 59.9364 31.3808 59.6929C31.7055 58.7186 31.2996 57.9067 30.8125 57.2572C30.4877 56.9324 30.163 56.8512 30.0818 57.176Z" fill="#EA5455" fill-opacity="0.3"/>
<path d="M44.046 65.8633C43.5589 65.8633 42.9905 66.1069 42.6658 66.6752C42.5034 66.9999 42.4222 67.3247 42.9093 67.4059C43.5588 67.5683 44.046 67.1623 44.4519 66.6752C44.6955 66.3504 44.6143 66.1069 44.046 65.8633Z" fill="#EA5455" fill-opacity="0.3"/>
</svg>
