<svg width="97" height="73" viewBox="0 0 97 73" fill="none" xmlns="http://www.w3.org/2000/svg">
<path d="M88.7564 21.0514C88.1564 19.4514 88.3564 17.5514 87.0564 16.1514C82.4564 10.6514 76.9564 6.55137 70.3564 3.95137C66.4564 2.45137 62.6564 0.851375 58.3564 0.651375C57.3564 0.551375 56.4564 0.551377 55.5564 1.05138C48.8564 5.35138 42.1564 9.75137 35.6564 14.3514C24.0564 22.6514 12.2564 30.7514 1.95641 40.7514C1.75641 40.9514 1.4564 41.2514 1.2564 41.2514C0.356402 40.8514 0.656396 41.4514 0.656396 41.8514C0.656396 42.1514 0.756402 42.4514 0.756402 42.6514C2.8564 52.1514 5.95641 61.3514 9.45641 70.4514C9.75641 71.3514 10.3564 71.8514 11.2564 71.9514C12.9564 72.2514 14.7564 72.5514 16.5564 72.5514C23.2564 72.5514 29.8564 71.3514 36.4564 70.1514C45.1564 68.5514 53.5564 65.9514 61.9564 63.3514C63.7564 62.7514 65.6564 62.1514 67.4564 61.5514C67.9564 61.3514 68.6564 61.2514 68.3564 60.4514C67.7564 59.1514 68.0564 57.8514 68.2564 56.5514C69.7564 57.0514 70.6564 57.9514 71.1564 59.1514C71.6564 60.3514 72.4564 60.7514 73.6564 60.5514C76.0564 60.0514 78.4564 59.4514 80.7564 58.5514C85.3564 56.6514 89.9564 54.6514 94.7564 53.2514C96.3564 52.7514 96.4564 52.4514 96.0564 50.7514C94.4564 44.5514 92.6564 38.3514 91.3564 31.9514C90.7564 28.3514 90.0564 24.5514 88.7564 21.0514ZM15.1564 31.0514C28.6564 21.2514 42.3564 11.8514 56.1564 2.45137C57.5564 1.55137 58.7564 1.15138 60.2564 1.65138C69.6564 4.55138 78.2564 8.65137 84.8564 16.3514C85.6564 17.2514 85.5564 17.5514 84.4564 17.9514C72.9564 21.9514 61.3564 25.4514 49.7564 29.0514C40.3564 31.9514 31.0564 35.0514 21.5564 37.4514C15.7564 38.9514 9.9564 40.0514 4.1564 41.0514C3.7564 41.1514 3.4564 41.1514 2.7564 41.1514C6.6564 37.2514 10.8564 34.1514 15.1564 31.0514ZM88.2564 24.1514C89.3564 33.0514 91.6564 41.6514 94.0564 50.2514C94.3564 51.2514 94.2564 51.6514 93.1564 52.0514C88.2564 53.6514 83.6564 55.7514 78.8564 57.5514C77.9564 57.8514 77.0564 58.1514 76.1564 58.3514C74.3564 58.8514 73.0564 59.1514 71.6564 57.0514C69.4564 53.7514 65.4564 54.5514 64.4564 58.4514C63.7564 60.9514 62.3564 61.5514 60.2564 62.2514C51.6564 64.9514 43.0564 67.4514 34.2564 69.0514C28.5564 70.0514 22.8564 71.0514 17.0564 71.0514C15.5564 71.0514 13.9564 70.7514 12.4564 70.6514C11.4564 70.5514 11.0564 70.0514 10.6564 69.1514C7.3564 60.6514 4.25641 51.9514 1.45641 43.2514C1.15641 42.2514 1.65641 42.1514 2.35641 42.0514C5.45641 41.6514 8.5564 41.2514 11.6564 40.7514C21.9564 39.1514 31.9564 36.2514 41.8564 33.1514C52.4564 29.8514 63.0564 26.6514 73.6564 23.3514C78.2564 21.9514 82.6564 20.3514 87.1564 18.3514C87.7564 20.2514 88.0564 22.1514 88.2564 24.1514Z" fill="#EA5455" fill-opacity="0.3"/>
<path d="M30.2563 42.3513C26.5563 41.3513 24.0563 43.5513 23.2563 46.0513C22.6563 48.2513 22.3563 50.5513 23.1563 52.5513C23.7563 55.0513 24.7563 57.1513 26.3563 58.9513C27.2563 59.8513 28.2564 60.6513 29.4564 61.0513C31.6564 61.7513 33.9563 61.0513 35.6563 58.9513C40.2563 53.3513 37.2563 44.1513 30.2563 42.3513ZM26.3563 44.1513C26.6563 45.6513 25.3563 45.7513 24.3563 46.4513C24.8563 45.2513 25.2563 44.3513 26.3563 44.1513ZM26.0564 45.9513C27.0564 48.2513 24.5564 48.9513 24.0564 50.6513C23.4564 48.5513 24.0564 46.9513 26.0564 45.9513ZM24.6563 50.4513C25.0563 49.8513 25.5564 49.1513 26.0564 48.5513C26.8564 49.9513 26.7564 50.3513 25.9564 51.5513C25.4564 52.2513 24.9563 53.0513 24.8563 54.0513C23.8563 52.6513 23.7563 51.7513 24.6563 50.4513ZM24.8563 54.0513C25.4563 53.1513 26.0563 52.1513 26.7563 51.1513C28.0563 53.2513 25.3563 54.0513 25.8563 55.9513C24.9563 55.3513 24.8563 54.7513 24.8563 54.0513ZM28.5564 59.2513C25.5564 57.4513 25.2564 56.4513 27.4564 53.0513C28.2564 55.1513 30.3564 56.8513 28.5564 59.2513ZM30.7563 60.0513C28.8563 59.9513 28.7563 59.7513 29.8563 57.3513C30.8563 57.8513 31.3564 58.5513 30.9564 59.7513C31.4564 58.3513 32.4564 59.0513 33.5564 59.2513C32.6564 59.9513 31.7563 60.2513 30.7563 60.0513ZM36.2563 52.8513C36.2563 54.0513 36.0564 55.1513 35.5564 56.2513C34.9564 57.8513 34.1563 58.1513 32.6563 57.4513C31.4563 56.9513 30.6564 55.9513 29.9564 54.8513C28.8564 53.2513 28.0564 51.4513 27.5564 49.5513C27.1564 48.1513 27.0564 46.7513 27.0564 45.2513C27.0564 44.1513 27.5563 43.7513 28.6563 43.8513C32.7563 44.3513 36.3563 48.5513 36.2563 52.8513Z" fill="#EA5455" fill-opacity="0.3"/>
<path d="M69.6562 28.5516C65.6562 32.6516 67.8562 39.9515 71.5562 42.1515C73.7562 43.4515 76.1562 43.3516 78.1562 41.7516C80.7562 39.7516 81.9562 36.1516 80.9562 32.5516C80.3562 30.5516 78.9562 28.6515 76.7562 27.4515C74.2562 26.0515 71.7562 26.4516 69.6562 28.5516ZM70.6562 29.4515C70.7562 30.6515 70.7562 30.6515 68.3562 33.9515C67.9562 31.9515 68.4562 30.9515 70.6562 29.4515ZM69.0562 33.7516C69.5562 33.1516 69.9562 32.3516 70.5562 31.5516C70.7562 32.6516 70.9562 33.4516 70.2562 34.3516C69.5562 35.2516 69.1562 36.2515 69.0562 37.4515C68.2562 36.2515 67.9562 35.0516 69.0562 33.7516ZM69.0562 37.4515C69.6562 36.5515 70.1562 35.5515 70.7562 34.6515C72.2562 36.5515 70.6562 37.9516 70.0562 39.5516C69.4562 38.9516 69.0562 38.2515 69.0562 37.4515ZM71.7562 41.2516C71.2562 40.8516 70.1562 40.6515 70.7562 39.4515C71.0562 38.8515 71.2562 38.2515 71.5562 37.6515C71.6562 37.6515 71.8562 37.7516 71.9562 37.7516C72.1562 38.6516 73.3562 39.2515 72.7562 40.4515C72.4562 40.8515 72.5562 41.8516 71.7562 41.2516ZM74.1562 41.9515C73.8562 42.4515 73.3562 42.1515 73.0562 41.9515C72.2562 41.4515 73.4562 41.1516 73.2562 40.5516C73.6562 41.0516 74.6562 41.1515 74.1562 41.9515ZM76.0562 28.9515C77.9562 29.9515 79.1562 31.6516 79.7562 33.7516C80.2562 36.4516 79.5562 38.8516 77.5562 40.8516C76.9562 41.4516 76.4562 41.4515 75.7562 40.9515C74.7562 40.1515 73.9562 39.1516 73.3562 38.0516C72.0562 35.5516 71.4562 32.8515 71.3562 29.9515C71.3562 29.0515 71.6562 28.6516 72.5562 28.3516C73.9562 28.1516 75.0562 28.3515 76.0562 28.9515Z" fill="#EA5455" fill-opacity="0.3"/>
<path d="M17.1563 64.1512C16.4563 64.2512 16.2563 64.7512 16.4563 65.4512C16.6563 66.5512 17.7563 67.6512 18.3563 67.3512C19.1563 67.0512 19.0563 66.4512 18.8563 65.8512C18.6563 64.9512 18.2563 64.0512 17.1563 64.1512ZM18.0563 66.9512C17.4563 66.9512 17.1563 66.4512 16.9563 66.0512C16.7563 65.6512 16.8563 65.1512 17.2563 65.1512C17.8563 65.1512 17.9563 65.7512 18.1563 66.1512C18.2563 66.4512 18.5563 66.9512 18.0563 66.9512Z" fill="#EA5455" fill-opacity="0.3"/>
<path d="M61.4565 32.3512C63.0565 32.6512 64.3566 32.8512 66.0566 33.1512C64.4566 32.0512 62.9565 31.8512 61.4565 32.3512Z" fill="#EA5455" fill-opacity="0.3"/>
<path d="M89.7566 47.8512C90.3566 47.6512 90.3566 47.0512 90.2566 46.5512C90.1566 46.1512 89.9566 45.5512 89.5566 45.7512C88.9566 46.0512 89.3566 46.7512 89.1566 47.3512C89.0566 47.6512 89.3566 48.0512 89.7566 47.8512Z" fill="#EA5455" fill-opacity="0.3"/>
<path d="M81.3566 15.6516C78.7566 11.6516 63.7566 3.25156 58.5566 2.85156C62.8566 4.45156 66.5567 6.45157 70.2567 8.55157C74.1567 10.6516 77.5566 13.2516 81.3566 15.6516Z" fill="#EA5455" fill-opacity="0.3"/>
<path d="M62.0566 6.35117C61.7566 6.05117 61.4565 5.95117 60.9565 5.95117C61.2565 6.25117 61.5565 6.45118 61.9565 6.55118C62.2565 6.75118 62.4566 6.95118 62.7566 7.05118C67.5566 9.55118 72.1566 12.2512 76.5566 15.4512C76.8566 15.6512 77.1565 15.9512 77.4565 16.1512C77.7565 16.3512 78.0566 16.4512 78.2566 16.6512C73.6566 11.7512 68.0566 8.75117 62.0566 6.35117Z" fill="#EA5455" fill-opacity="0.3"/>
<path d="M66.6562 11.3516C69.8563 13.3516 72.9563 15.4516 76.1562 17.4516C73.4563 14.6516 70.1562 12.6516 66.6562 11.3516Z" fill="#EA5455" fill-opacity="0.3"/>
<path d="M66.3564 13.9512C68.6564 15.5512 70.9564 17.1512 73.1564 18.7512C71.5564 16.3512 69.0564 14.9512 66.3564 13.9512Z" fill="#EA5455" fill-opacity="0.3"/>
<path d="M27.3564 30.4515C27.9564 30.0515 28.8563 29.7515 28.7563 28.7515C28.7563 28.2515 28.1563 28.1515 27.7563 28.3515C26.9563 28.6515 26.2563 29.1515 26.2563 30.1515C26.2563 30.6515 26.7564 30.6515 27.3564 30.4515Z" fill="#EA5455" fill-opacity="0.3"/>
<path d="M65.8564 15.9512C67.4564 17.2512 68.8564 18.6512 70.9564 19.8512C69.6564 17.5512 67.6564 16.9512 65.8564 15.9512Z" fill="#EA5455" fill-opacity="0.3"/>
<path d="M56.6563 10.4512C57.2563 10.1512 57.6563 9.75125 57.6563 9.05125C57.4563 8.55125 57.0563 8.35125 56.6563 8.55125C56.0563 8.85125 55.7563 9.55125 55.7563 10.1512C55.8563 10.6512 56.3563 10.5512 56.6563 10.4512Z" fill="#EA5455" fill-opacity="0.3"/>
<path d="M65.1562 18.3516C65.9563 19.1516 66.6562 19.9516 67.9562 20.5516C67.2562 19.2516 66.2563 18.8516 65.1562 18.3516Z" fill="#EA5455" fill-opacity="0.3"/>
<path d="M27.4564 57.1515C27.6564 56.6515 28.0564 56.3515 27.8564 55.7515C27.3564 56.1515 27.2564 56.5515 27.4564 57.1515Z" fill="#EA5455" fill-opacity="0.3"/>
</svg>
