<svg width="347" height="190" viewBox="0 0 347 190" fill="none" xmlns="http://www.w3.org/2000/svg">
<path fill-rule="evenodd" clip-rule="evenodd" d="M0 61.9995V31H119.221C128.586 28.4308 136.915 21.3125 144.99 14.4114C148.372 11.5208 151.71 8.6683 155.06 6.20414C160.363 2.30411 166.913 0 174 0C181.087 0 187.637 2.30411 192.94 6.20414C196.29 8.66831 199.628 11.5208 203.01 14.4114C211.085 21.3125 219.414 28.4308 228.779 31H347V61.9995V81.4995V160C347 176.569 333.569 190 317 190H30C13.4315 190 0 176.569 0 160V81.4995V61.9995Z" fill="#C9AB81"/>
</svg>
